<svg xmlns="http://www.w3.org/2000/svg" xmlns:xlink="http://www.w3.org/1999/xlink" width="2000" zoomAndPan="magnify" viewBox="0 0 1500 1499.999933" height="2000" preserveAspectRatio="xMidYMid meet" version="1.0"><defs><g/><clipPath id="2983b544fa"><rect x="0" width="1360" y="0" height="263"/></clipPath><clipPath id="11f3d9a49a"><path d="M 449 702 L 740 702 L 740 987 L 449 987 Z M 449 702 " clip-rule="nonzero"/></clipPath><clipPath id="0b3745ab52"><path d="M 627.726562 598.519531 L 833.859375 828.3125 L 641.945312 1000.464844 L 435.8125 770.675781 Z M 627.726562 598.519531 " clip-rule="nonzero"/></clipPath><clipPath id="1cab241041"><path d="M 738.304688 748.808594 L 675.617188 963.578125 C 672.308594 974.914062 663.117188 983.570312 651.601562 986.1875 C 640.082031 988.808594 628.050781 984.980469 620.164062 976.1875 L 458.265625 795.703125 C 450.378906 786.910156 447.875 774.535156 451.726562 763.371094 C 455.574219 752.203125 465.171875 744.003906 476.800781 741.941406 L 697.097656 702.867188 C 709.464844 700.671875 722.089844 705.027344 730.476562 714.375 C 738.867188 723.726562 741.824219 736.75 738.304688 748.808594 Z M 738.304688 748.808594 " clip-rule="nonzero"/></clipPath><clipPath id="eb73a728aa"><path d="M 0 0 L 291 0 L 291 285 L 0 285 Z M 0 0 " clip-rule="nonzero"/></clipPath><clipPath id="7aa7f93bb0"><path d="M 178.726562 -103.480469 L 384.859375 126.3125 L 192.945312 298.464844 L -13.1875 68.675781 Z M 178.726562 -103.480469 " clip-rule="nonzero"/></clipPath><clipPath id="ea71d7b4c0"><path d="M 289.304688 46.808594 L 226.617188 261.578125 C 223.308594 272.914062 214.117188 281.570312 202.601562 284.1875 C 191.082031 286.808594 179.050781 282.980469 171.164062 274.1875 L 9.265625 93.703125 C 1.378906 84.910156 -1.125 72.535156 2.726562 61.371094 C 6.574219 50.203125 16.171875 42.003906 27.800781 39.941406 L 248.097656 0.867188 C 260.464844 -1.328125 273.089844 3.027344 281.476562 12.375 C 289.867188 21.726562 292.824219 34.75 289.304688 46.808594 Z M 289.304688 46.808594 " clip-rule="nonzero"/></clipPath><clipPath id="2ee273e831"><rect x="0" width="291" y="0" height="285"/></clipPath><clipPath id="718f3ba0f0"><path d="M 609.625 599.164062 L 890.375 599.164062 L 890.375 901 L 609.625 901 Z M 609.625 599.164062 " clip-rule="nonzero"/></clipPath><clipPath id="82edfd6a59"><path d="M 680.125 599.164062 L 819.875 599.164062 C 858.8125 599.164062 890.375 630.730469 890.375 669.664062 L 890.375 830.335938 C 890.375 869.269531 858.8125 900.835938 819.875 900.835938 L 680.125 900.835938 C 641.1875 900.835938 609.625 869.269531 609.625 830.335938 L 609.625 669.664062 C 609.625 630.730469 641.1875 599.164062 680.125 599.164062 Z M 680.125 599.164062 " clip-rule="nonzero"/></clipPath><clipPath id="a6f19b9759"><path d="M 0.625 0.164062 L 281.375 0.164062 L 281.375 301.960938 L 0.625 301.960938 Z M 0.625 0.164062 " clip-rule="nonzero"/></clipPath><clipPath id="97a7ba55a6"><path d="M 71.125 0.164062 L 210.875 0.164062 C 249.8125 0.164062 281.375 31.730469 281.375 70.664062 L 281.375 231.335938 C 281.375 270.269531 249.8125 301.835938 210.875 301.835938 L 71.125 301.835938 C 32.1875 301.835938 0.625 270.269531 0.625 231.335938 L 0.625 70.664062 C 0.625 31.730469 32.1875 0.164062 71.125 0.164062 Z M 71.125 0.164062 " clip-rule="nonzero"/></clipPath><clipPath id="b6b9b12ab3"><rect x="0" width="282" y="0" height="302"/></clipPath><clipPath id="f8ba660749"><path d="M 548.953125 714.410156 L 790.199219 714.410156 L 790.199219 876.226562 L 548.953125 876.226562 Z M 548.953125 714.410156 " clip-rule="nonzero"/></clipPath><clipPath id="6b7e2e6cee"><path d="M 0.953125 0.410156 L 242.199219 0.410156 L 242.199219 162.226562 L 0.953125 162.226562 Z M 0.953125 0.410156 " clip-rule="nonzero"/></clipPath><clipPath id="8be3134138"><rect x="0" width="243" y="0" height="163"/></clipPath><clipPath id="00e00ff42c"><path d="M 364 656 L 881.832031 656 L 881.832031 1013 L 364 1013 Z M 364 656 " clip-rule="nonzero"/></clipPath><clipPath id="6e2485623a"><path d="M 430 675 L 839.984375 675 L 839.984375 958 L 430 958 Z M 430 675 " clip-rule="nonzero"/></clipPath></defs><g transform="matrix(1, 0, 0, 1, 70, 948)"><g clip-path="url(#2983b544fa)"><g fill="#004aad" fill-opacity="1"><g transform="translate(0.652421, 209.068074)"><g><path d="M 87.25 3.046875 C 76.34375 3.046875 66.085938 1.050781 56.484375 -2.9375 C 46.890625 -6.9375 38.566406 -12.425781 31.515625 -19.40625 C 24.460938 -26.394531 18.863281 -34.722656 14.71875 -44.390625 C 10.570312 -54.054688 8.5 -64.5625 8.5 -75.90625 L 8.5 -76.34375 C 8.5 -87.394531 10.535156 -97.789062 14.609375 -107.53125 C 18.679688 -117.28125 24.242188 -125.679688 31.296875 -132.734375 C 38.347656 -139.785156 46.816406 -145.378906 56.703125 -149.515625 C 66.597656 -153.660156 77.289062 -155.734375 88.78125 -155.734375 C 104.332031 -155.734375 117.34375 -152.753906 127.8125 -146.796875 C 138.289062 -140.835938 146.875 -133.273438 153.5625 -124.109375 L 121.71875 -99.46875 C 117.351562 -104.84375 112.515625 -109.164062 107.203125 -112.4375 C 101.898438 -115.707031 95.613281 -117.34375 88.34375 -117.34375 C 82.957031 -117.34375 78.046875 -116.253906 73.609375 -114.078125 C 69.179688 -111.898438 65.363281 -108.992188 62.15625 -105.359375 C 58.957031 -101.722656 56.445312 -97.429688 54.625 -92.484375 C 52.8125 -87.535156 51.90625 -82.300781 51.90625 -76.78125 L 51.90625 -76.34375 C 51.90625 -70.675781 52.8125 -65.332031 54.625 -60.3125 C 56.445312 -55.289062 58.957031 -50.960938 62.15625 -47.328125 C 65.363281 -43.691406 69.179688 -40.816406 73.609375 -38.703125 C 78.046875 -36.597656 82.957031 -35.546875 88.34375 -35.546875 C 96.195312 -35.546875 102.773438 -37.253906 108.078125 -40.671875 C 113.390625 -44.097656 118.296875 -48.570312 122.796875 -54.09375 L 154.65625 -31.40625 C 147.53125 -21.519531 138.691406 -13.304688 128.140625 -6.765625 C 117.597656 -0.222656 103.96875 3.046875 87.25 3.046875 Z M 87.25 3.046875 "/></g></g></g><g fill="#004aad" fill-opacity="1"><g transform="translate(160.097555, 209.068074)"><g><path d="M 44.9375 2.625 C 33.738281 2.625 24.359375 -0.535156 16.796875 -6.859375 C 9.234375 -13.191406 5.453125 -22.175781 5.453125 -33.8125 L 5.453125 -34.25 C 5.453125 -46.457031 9.703125 -55.6875 18.203125 -61.9375 C 26.710938 -68.195312 37.878906 -71.328125 51.703125 -71.328125 C 57.078125 -71.328125 62.304688 -70.890625 67.390625 -70.015625 C 72.484375 -69.140625 76.703125 -68.050781 80.046875 -66.75 L 80.046875 -68.703125 C 80.046875 -74.960938 78.082031 -79.765625 74.15625 -83.109375 C 70.226562 -86.453125 64.34375 -88.125 56.5 -88.125 C 50.238281 -88.125 44.5625 -87.503906 39.46875 -86.265625 C 34.382812 -85.035156 29.15625 -83.472656 23.78125 -81.578125 L 15.265625 -110.59375 C 21.953125 -113.351562 29.078125 -115.566406 36.640625 -117.234375 C 44.203125 -118.910156 53 -119.75 63.03125 -119.75 C 73.507812 -119.75 82.453125 -118.507812 89.859375 -116.03125 C 97.273438 -113.5625 103.3125 -110.003906 107.96875 -105.359375 C 112.476562 -100.992188 115.710938 -95.71875 117.671875 -89.53125 C 119.640625 -83.351562 120.625 -76.125 120.625 -67.84375 L 120.625 0 L 79.828125 0 L 79.828125 -12.4375 C 75.753906 -7.925781 70.847656 -4.285156 65.109375 -1.515625 C 59.367188 1.242188 52.644531 2.625 44.9375 2.625 Z M 59.765625 -23.34375 C 65.867188 -23.34375 70.847656 -25.125 74.703125 -28.6875 C 78.554688 -32.25 80.484375 -36.9375 80.484375 -42.75 L 80.484375 -48.203125 C 78.304688 -49.078125 75.796875 -49.804688 72.953125 -50.390625 C 70.117188 -50.972656 67.175781 -51.265625 64.125 -51.265625 C 58.164062 -51.265625 53.515625 -49.953125 50.171875 -47.328125 C 46.828125 -44.710938 45.15625 -41.148438 45.15625 -36.640625 L 45.15625 -36.203125 C 45.15625 -32.128906 46.535156 -28.96875 49.296875 -26.71875 C 52.054688 -24.46875 55.546875 -23.34375 59.765625 -23.34375 Z M 59.765625 -23.34375 "/></g></g></g><g fill="#004aad" fill-opacity="1"><g transform="translate(290.750979, 209.068074)"><g><path d="M 11.125 0 L 11.125 -118 L 52.5625 -118 L 52.5625 -101.859375 C 56.34375 -106.804688 61.066406 -111.171875 66.734375 -114.953125 C 72.410156 -118.734375 79.394531 -120.625 87.6875 -120.625 C 95.539062 -120.625 102.375 -118.953125 108.1875 -115.609375 C 114.007812 -112.265625 118.519531 -107.535156 121.71875 -101.421875 C 126.800781 -107.242188 132.503906 -111.898438 138.828125 -115.390625 C 145.160156 -118.878906 152.613281 -120.625 161.1875 -120.625 C 173.695312 -120.625 183.550781 -116.84375 190.75 -109.28125 C 197.945312 -101.71875 201.546875 -91.101562 201.546875 -77.4375 L 201.546875 0 L 160.109375 0 L 160.109375 -64.125 C 160.109375 -70.519531 158.648438 -75.425781 155.734375 -78.84375 C 152.828125 -82.269531 148.90625 -83.984375 143.96875 -83.984375 C 139.019531 -83.984375 134.945312 -82.269531 131.75 -78.84375 C 128.550781 -75.425781 126.953125 -70.519531 126.953125 -64.125 L 126.953125 0 L 85.71875 0 L 85.71875 -64.125 C 85.71875 -70.519531 84.226562 -75.425781 81.25 -78.84375 C 78.269531 -82.269531 74.304688 -83.984375 69.359375 -83.984375 C 64.421875 -83.984375 60.382812 -82.269531 57.25 -78.84375 C 54.125 -75.425781 52.5625 -70.519531 52.5625 -64.125 L 52.5625 0 Z M 11.125 0 "/></g></g></g><g fill="#004aad" fill-opacity="1"><g transform="translate(502.544667, 209.068074)"><g><path d="M 11.125 34.90625 L 11.125 -118 L 52.5625 -118 L 52.5625 -102.296875 C 56.632812 -107.242188 61.429688 -111.535156 66.953125 -115.171875 C 72.484375 -118.804688 79.613281 -120.625 88.34375 -120.625 C 95.320312 -120.625 102.007812 -119.203125 108.40625 -116.359375 C 114.800781 -113.523438 120.363281 -109.488281 125.09375 -104.25 C 129.820312 -99.019531 133.601562 -92.625 136.4375 -85.0625 C 139.269531 -77.5 140.6875 -68.992188 140.6875 -59.546875 L 140.6875 -59.109375 C 140.6875 -49.515625 139.269531 -40.898438 136.4375 -33.265625 C 133.601562 -25.628906 129.820312 -19.15625 125.09375 -13.84375 C 120.363281 -8.539062 114.835938 -4.46875 108.515625 -1.625 C 102.191406 1.207031 95.539062 2.625 88.5625 2.625 C 79.6875 2.625 72.410156 0.914062 66.734375 -2.5 C 61.066406 -5.925781 56.34375 -9.890625 52.5625 -14.390625 L 52.5625 34.90625 Z M 75.90625 -32.0625 C 82.59375 -32.0625 88.300781 -34.566406 93.03125 -39.578125 C 97.757812 -44.597656 100.125 -51.035156 100.125 -58.890625 L 100.125 -59.328125 C 100.125 -67.179688 97.757812 -73.613281 93.03125 -78.625 C 88.300781 -83.644531 82.59375 -86.15625 75.90625 -86.15625 C 69.21875 -86.15625 63.507812 -83.644531 58.78125 -78.625 C 54.0625 -73.613281 51.703125 -67.179688 51.703125 -59.328125 L 51.703125 -58.890625 C 51.703125 -51.035156 54.0625 -44.597656 58.78125 -39.578125 C 63.507812 -34.566406 69.21875 -32.0625 75.90625 -32.0625 Z M 75.90625 -32.0625 "/></g></g></g><g fill="#004aad" fill-opacity="1"><g transform="translate(649.993275, 209.068074)"><g><path d="M 50.609375 2.625 C 38.097656 2.625 28.242188 -1.300781 21.046875 -9.15625 C 13.847656 -17.007812 10.25 -27.625 10.25 -41 L 10.25 -118 L 51.703125 -118 L 51.703125 -54.09375 C 51.703125 -47.695312 53.265625 -42.789062 56.390625 -39.375 C 59.515625 -35.957031 63.546875 -34.25 68.484375 -34.25 C 73.429688 -34.25 77.578125 -35.957031 80.921875 -39.375 C 84.265625 -42.789062 85.9375 -47.695312 85.9375 -54.09375 L 85.9375 -118 L 127.171875 -118 L 127.171875 0 L 85.9375 0 L 85.9375 -16.359375 C 82.15625 -11.410156 77.390625 -7.007812 71.640625 -3.15625 C 65.898438 0.695312 58.890625 2.625 50.609375 2.625 Z M 50.609375 2.625 "/></g></g></g><g fill="#fe6c0f" fill-opacity="1"><g transform="translate(788.28934, 209.068074)"><g><path d="M 73.515625 2.625 C 59.984375 2.625 47.035156 0.476562 34.671875 -3.8125 C 22.316406 -8.101562 11.414062 -14.394531 1.96875 -22.6875 L 25.515625 -50.828125 C 33.078125 -44.859375 41.039062 -40.3125 49.40625 -37.1875 C 57.769531 -34.0625 66.3125 -32.5 75.03125 -32.5 C 80.851562 -32.5 85.253906 -33.441406 88.234375 -35.328125 C 91.210938 -37.222656 92.703125 -39.769531 92.703125 -42.96875 L 92.703125 -43.40625 C 92.703125 -46.601562 90.992188 -49.253906 87.578125 -51.359375 C 84.160156 -53.472656 77.21875 -55.765625 66.75 -58.234375 C 58.601562 -60.128906 51.003906 -62.203125 43.953125 -64.453125 C 36.898438 -66.710938 30.828125 -69.625 25.734375 -73.1875 C 20.648438 -76.75 16.613281 -81.179688 13.625 -86.484375 C 10.644531 -91.796875 9.15625 -98.304688 9.15625 -106.015625 L 9.15625 -106.4375 C 9.15625 -113.570312 10.535156 -120.117188 13.296875 -126.078125 C 16.066406 -132.035156 19.957031 -137.160156 24.96875 -141.453125 C 29.988281 -145.742188 36.171875 -149.125 43.515625 -151.59375 C 50.859375 -154.070312 59.109375 -155.3125 68.265625 -155.3125 C 81.210938 -155.3125 92.847656 -153.597656 103.171875 -150.171875 C 113.492188 -146.753906 122.800781 -141.703125 131.09375 -135.015625 L 109.9375 -105.140625 C 102.957031 -110.078125 95.757812 -113.816406 88.34375 -116.359375 C 80.925781 -118.910156 73.875 -120.1875 67.1875 -120.1875 C 62.09375 -120.1875 58.269531 -119.238281 55.71875 -117.34375 C 53.175781 -115.457031 51.90625 -113.132812 51.90625 -110.375 L 51.90625 -109.9375 C 51.90625 -106.445312 53.6875 -103.679688 57.25 -101.640625 C 60.820312 -99.609375 67.914062 -97.429688 78.53125 -95.109375 C 95.832031 -91.328125 109.609375 -86.015625 119.859375 -79.171875 C 130.109375 -72.335938 135.234375 -61.796875 135.234375 -47.546875 L 135.234375 -47.109375 C 135.234375 -39.398438 133.742188 -32.457031 130.765625 -26.28125 C 127.785156 -20.101562 123.601562 -14.867188 118.21875 -10.578125 C 112.84375 -6.285156 106.335938 -3.007812 98.703125 -0.75 C 91.066406 1.5 82.671875 2.625 73.515625 2.625 Z M 73.515625 2.625 "/></g></g></g><g fill="#fe6c0f" fill-opacity="1"><g transform="translate(930.503079, 209.068074)"><g><path d="M 11.125 0 L 11.125 -159.234375 L 52.5625 -159.234375 L 52.5625 -101.859375 C 56.34375 -106.804688 61.101562 -111.171875 66.84375 -114.953125 C 72.59375 -118.734375 79.613281 -120.625 87.90625 -120.625 C 100.40625 -120.625 110.21875 -116.734375 117.34375 -108.953125 C 124.476562 -101.171875 128.046875 -90.59375 128.046875 -77.21875 L 128.046875 0 L 86.8125 0 L 86.8125 -63.90625 C 86.8125 -70.445312 85.25 -75.425781 82.125 -78.84375 C 79 -82.269531 74.960938 -83.984375 70.015625 -83.984375 C 65.078125 -83.984375 60.929688 -82.269531 57.578125 -78.84375 C 54.234375 -75.425781 52.5625 -70.445312 52.5625 -63.90625 L 52.5625 0 Z M 11.125 0 "/></g></g></g><g fill="#fe6c0f" fill-opacity="1"><g transform="translate(1068.79064, 209.068074)"><g><path d="M 71.328125 2.828125 C 62.015625 2.828125 53.359375 1.191406 45.359375 -2.078125 C 37.367188 -5.347656 30.535156 -9.742188 24.859375 -15.265625 C 19.191406 -20.796875 14.722656 -27.304688 11.453125 -34.796875 C 8.179688 -42.285156 6.546875 -50.171875 6.546875 -58.453125 L 6.546875 -58.890625 C 6.546875 -67.179688 8.179688 -75.109375 11.453125 -82.671875 C 14.722656 -90.234375 19.226562 -96.8125 24.96875 -102.40625 C 30.71875 -108.007812 37.585938 -112.445312 45.578125 -115.71875 C 53.578125 -118.988281 62.304688 -120.625 71.765625 -120.625 C 81.210938 -120.625 89.898438 -118.988281 97.828125 -115.71875 C 105.753906 -112.445312 112.585938 -108.046875 118.328125 -102.515625 C 124.078125 -96.992188 128.585938 -90.488281 131.859375 -83 C 135.128906 -75.507812 136.765625 -67.617188 136.765625 -59.328125 L 136.765625 -58.890625 C 136.765625 -50.597656 135.128906 -42.671875 131.859375 -35.109375 C 128.585938 -27.554688 124.078125 -20.976562 118.328125 -15.375 C 112.585938 -9.78125 105.679688 -5.347656 97.609375 -2.078125 C 89.535156 1.191406 80.773438 2.828125 71.328125 2.828125 Z M 71.765625 -32.28125 C 79.179688 -32.28125 85.175781 -34.859375 89.75 -40.015625 C 94.332031 -45.179688 96.625 -51.328125 96.625 -58.453125 L 96.625 -58.890625 C 96.625 -66.160156 94.222656 -72.445312 89.421875 -77.75 C 84.628906 -83.0625 78.597656 -85.71875 71.328125 -85.71875 C 63.910156 -85.71875 57.945312 -83.097656 53.4375 -77.859375 C 48.925781 -72.628906 46.671875 -66.453125 46.671875 -59.328125 L 46.671875 -58.890625 C 46.671875 -51.765625 49.035156 -45.546875 53.765625 -40.234375 C 58.492188 -34.929688 64.492188 -32.28125 71.765625 -32.28125 Z M 71.765625 -32.28125 "/></g></g></g><g fill="#fe6c0f" fill-opacity="1"><g transform="translate(1211.876824, 209.068074)"><g><path d="M 11.125 34.90625 L 11.125 -118 L 52.5625 -118 L 52.5625 -102.296875 C 56.632812 -107.242188 61.429688 -111.535156 66.953125 -115.171875 C 72.484375 -118.804688 79.613281 -120.625 88.34375 -120.625 C 95.320312 -120.625 102.007812 -119.203125 108.40625 -116.359375 C 114.800781 -113.523438 120.363281 -109.488281 125.09375 -104.25 C 129.820312 -99.019531 133.601562 -92.625 136.4375 -85.0625 C 139.269531 -77.5 140.6875 -68.992188 140.6875 -59.546875 L 140.6875 -59.109375 C 140.6875 -49.515625 139.269531 -40.898438 136.4375 -33.265625 C 133.601562 -25.628906 129.820312 -19.15625 125.09375 -13.84375 C 120.363281 -8.539062 114.835938 -4.46875 108.515625 -1.625 C 102.191406 1.207031 95.539062 2.625 88.5625 2.625 C 79.6875 2.625 72.410156 0.914062 66.734375 -2.5 C 61.066406 -5.925781 56.34375 -9.890625 52.5625 -14.390625 L 52.5625 34.90625 Z M 75.90625 -32.0625 C 82.59375 -32.0625 88.300781 -34.566406 93.03125 -39.578125 C 97.757812 -44.597656 100.125 -51.035156 100.125 -58.890625 L 100.125 -59.328125 C 100.125 -67.179688 97.757812 -73.613281 93.03125 -78.625 C 88.300781 -83.644531 82.59375 -86.15625 75.90625 -86.15625 C 69.21875 -86.15625 63.507812 -83.644531 58.78125 -78.625 C 54.0625 -73.613281 51.703125 -67.179688 51.703125 -59.328125 L 51.703125 -58.890625 C 51.703125 -51.035156 54.0625 -44.597656 58.78125 -39.578125 C 63.507812 -34.566406 69.21875 -32.0625 75.90625 -32.0625 Z M 75.90625 -32.0625 "/></g></g></g></g></g><path fill="#0d4bb8" d="M 668.046875 451.640625 C 677.078125 451.640625 684.40625 444.3125 684.40625 435.285156 L 684.40625 403.617188 C 684.40625 362.664062 717.769531 329.296875 758.859375 329.296875 C 799.945312 329.296875 833.3125 362.664062 833.3125 403.617188 L 833.3125 435.285156 C 833.3125 444.3125 840.636719 451.640625 849.667969 451.640625 C 858.695312 451.640625 866.023438 444.3125 866.023438 435.285156 L 866.023438 408.066406 C 866.023438 350.886719 823.105469 300.640625 765.921875 296.84375 C 703.769531 292.789062 651.691406 342.25 651.691406 403.617188 L 651.691406 435.285156 C 651.691406 444.3125 659.019531 451.640625 668.046875 451.640625 Z M 668.046875 451.640625 " fill-opacity="1" fill-rule="nonzero"/><path fill="#fe6c0f" d="M 1012.050781 876.898438 L 976.066406 526.878906 C 973.1875 499.007812 949.765625 477.941406 921.765625 477.941406 L 595.949219 477.941406 C 567.949219 477.941406 544.527344 499.136719 541.648438 526.878906 L 532.621094 614.023438 C 526.601562 672.511719 582.210938 718.179688 638.347656 701.039062 L 668.832031 691.746094 C 703.507812 681.148438 742.238281 698.683594 755.847656 737.152344 C 760.558594 750.5 759.90625 765.152344 755.71875 778.761719 L 742.238281 822.726562 C 723.660156 883.441406 769.0625 944.808594 832.527344 944.808594 L 950.8125 944.808594 C 987.320312 944.679688 1015.84375 913.144531 1012.050781 876.898438 Z M 1012.050781 876.898438 " fill-opacity="1" fill-rule="nonzero"/><path fill="#0d4bb8" d="M 680.347656 729.171875 L 504.09375 782.949219 C 478.449219 790.800781 476.617188 826.390625 501.347656 836.859375 L 543.347656 854.523438 C 565.59375 863.945312 583.390625 881.609375 592.808594 903.984375 L 610.476562 945.988281 C 620.941406 970.71875 656.535156 968.886719 664.382812 943.238281 L 718.164062 766.984375 C 725.359375 743.824219 703.640625 722.105469 680.347656 729.171875 Z M 680.347656 729.171875 " fill-opacity="1" fill-rule="nonzero"/><g clip-path="url(#11f3d9a49a)"><g clip-path="url(#0b3745ab52)"><g clip-path="url(#1cab241041)"><g transform="matrix(1, 0, 0, 1, 449, 702)"><g clip-path="url(#2ee273e831)"><g clip-path="url(#eb73a728aa)"><g clip-path="url(#7aa7f93bb0)"><g clip-path="url(#ea71d7b4c0)"><path fill="#ffffff" d="M 185.683594 -143.140625 L 425.792969 124.53125 L 210.308594 317.828125 L -29.796875 50.15625 Z M 185.683594 -143.140625 " fill-opacity="1" fill-rule="nonzero"/></g></g></g></g></g></g></g></g><g clip-path="url(#718f3ba0f0)"><g clip-path="url(#82edfd6a59)"><g transform="matrix(1, 0, 0, 1, 609, 599)"><g clip-path="url(#b6b9b12ab3)"><g clip-path="url(#a6f19b9759)"><g clip-path="url(#97a7ba55a6)"><path fill="#fe6c0f" d="M 0.625 0.164062 L 281.375 0.164062 L 281.375 301.753906 L 0.625 301.753906 Z M 0.625 0.164062 " fill-opacity="1" fill-rule="nonzero"/></g></g></g></g></g></g><g clip-path="url(#f8ba660749)"><g transform="matrix(1, 0, 0, 1, 548, 714)"><g clip-path="url(#8be3134138)"><g clip-path="url(#6b7e2e6cee)"><path fill="#ffffff" d="M 0.953125 0.410156 L 242.417969 0.410156 L 242.417969 162.226562 L 0.953125 162.226562 Z M 0.953125 0.410156 " fill-opacity="1" fill-rule="nonzero"/></g></g></g></g><path fill="#ffffff" d="M 627.972656 866.117188 C 624.71875 866.117188 621.503906 865.609375 618.3125 864.574219 L 470.253906 815.191406 C 467.570312 822.167969 466.226562 831.15625 466.226562 844.277344 C 475.886719 849.867188 485.304688 861.117188 485.304688 880.496094 C 485.304688 892.375 479.363281 900.917969 474.261719 906.589844 C 496.226562 932.074219 556.667969 950.398438 627.992188 950.398438 C 717.867188 950.398438 790.695312 921.316406 790.695312 885.5 C 790.695312 877.589844 790.695312 845.273438 790.695312 813.546875 L 637.59375 864.574219 C 634.441406 865.609375 631.226562 866.117188 627.972656 866.117188 Z M 627.972656 866.117188 " fill-opacity="1" fill-rule="nonzero"/><g clip-path="url(#00e00ff42c)"><path fill="#ffffff" d="M 875.238281 738.03125 L 631.1875 656.679688 C 629.070312 655.988281 626.855469 655.988281 624.757812 656.679688 L 380.707031 738.03125 C 376.558594 739.414062 373.75 743.296875 373.75 747.671875 C 373.75 752.042969 376.558594 755.929688 380.707031 757.3125 L 436.65625 775.960938 C 423.78125 790.890625 416.296875 811.9375 413.550781 846.1875 C 404.703125 850.355469 398.460938 859.246094 398.460938 869.699219 C 398.460938 880.335938 404.847656 889.386719 413.957031 893.472656 C 406.007812 962.722656 364.539062 985.804688 364.539062 991.726562 C 364.539062 994.734375 396.652344 1012.0625 404.277344 1012.0625 C 416.074219 1012.0625 444.382812 992.050781 444.382812 948.832031 C 444.382812 923.371094 442.085938 904.128906 439.664062 890.484375 C 446.195312 885.746094 450.730469 878.402344 450.730469 869.699219 C 450.730469 860.199219 445.421875 852.269531 437.835938 847.691406 C 442.125 791.175781 459.597656 781.71875 501.859375 764.1875 C 506.089844 762.519531 514.082031 759.285156 518.699219 757.371094 C 526.996094 753.957031 534.5 750.90625 541.699219 748.015625 C 564.945312 738.785156 584.59375 731.359375 599.582031 725.847656 C 615.992188 719.992188 623.355469 717.855469 623.621094 717.773438 C 629.90625 715.660156 636.902344 719.054688 639.058594 725.460938 C 641.191406 731.847656 637.777344 738.761719 631.371094 740.917969 C 630.882812 741.082031 602.328125 749.238281 528.03125 779.949219 C 523.253906 781.921875 518.699219 783.710938 514.367188 785.417969 C 505.558594 788.894531 498.257812 791.683594 492.136719 794.488281 L 624.757812 838.683594 C 625.816406 839.007812 626.875 839.191406 627.972656 839.191406 C 629.070312 839.191406 630.128906 839.007812 631.1875 838.664062 L 875.238281 757.3125 C 879.386719 755.929688 882.195312 752.042969 882.195312 747.671875 C 882.195312 743.296875 879.386719 739.414062 875.238281 738.03125 Z M 875.238281 738.03125 " fill-opacity="1" fill-rule="nonzero"/></g><path fill="#0d4bb8" d="M 639.011719 841.652344 C 636.4375 841.652344 633.890625 841.25 631.363281 840.425781 L 514.167969 801.339844 C 512.042969 806.863281 510.980469 813.976562 510.980469 824.363281 C 518.628906 828.789062 526.082031 837.691406 526.082031 853.03125 C 526.082031 862.433594 521.382812 869.195312 517.339844 873.6875 C 534.726562 893.859375 582.570312 908.363281 639.027344 908.363281 C 710.167969 908.363281 767.8125 885.34375 767.8125 856.992188 C 767.8125 850.730469 767.8125 825.148438 767.8125 800.035156 L 646.625 840.425781 C 644.128906 841.25 641.585938 841.652344 639.011719 841.652344 Z M 639.011719 841.652344 " fill-opacity="1" fill-rule="nonzero"/><g clip-path="url(#6e2485623a)"><path fill="#0d4bb8" d="M 834.734375 740.265625 L 641.554688 675.871094 C 639.882812 675.324219 638.125 675.324219 636.46875 675.871094 L 443.289062 740.265625 C 440.003906 741.359375 437.78125 744.433594 437.78125 747.894531 C 437.78125 751.355469 440.003906 754.429688 443.289062 755.523438 L 487.574219 770.285156 C 477.382812 782.101562 471.460938 798.765625 469.285156 825.875 C 462.285156 829.175781 457.339844 836.210938 457.339844 844.484375 C 457.339844 852.902344 462.398438 860.066406 469.609375 863.304688 C 463.3125 918.117188 430.488281 936.390625 430.488281 941.074219 C 430.488281 943.457031 455.910156 957.171875 461.945312 957.171875 C 471.28125 957.171875 493.691406 941.332031 493.691406 907.121094 C 493.691406 886.96875 491.871094 871.738281 489.957031 860.9375 C 495.125 857.1875 498.714844 851.375 498.714844 844.484375 C 498.714844 836.964844 494.511719 830.6875 488.507812 827.066406 C 491.90625 782.328125 505.734375 774.84375 539.1875 760.964844 C 542.535156 759.644531 548.859375 757.085938 552.515625 755.574219 C 559.082031 752.867188 565.023438 750.453125 570.722656 748.167969 C 589.121094 740.859375 604.671875 734.984375 616.539062 730.621094 C 629.53125 725.984375 635.355469 724.292969 635.566406 724.230469 C 640.539062 722.554688 646.078125 725.242188 647.785156 730.316406 C 649.476562 735.371094 646.769531 740.84375 641.699219 742.550781 C 641.3125 742.679688 618.710938 749.132812 559.902344 773.441406 C 556.121094 775.003906 552.515625 776.421875 549.085938 777.773438 C 542.117188 780.527344 536.335938 782.730469 531.492188 784.953125 L 636.46875 819.933594 C 637.304688 820.191406 638.140625 820.335938 639.011719 820.335938 C 639.882812 820.335938 640.71875 820.191406 641.554688 819.917969 L 834.734375 755.523438 C 838.019531 754.429688 840.242188 751.355469 840.242188 747.894531 C 840.242188 744.433594 838.019531 741.359375 834.734375 740.265625 Z M 834.734375 740.265625 " fill-opacity="1" fill-rule="nonzero"/></g></svg>