<svg xmlns="http://www.w3.org/2000/svg" xmlns:xlink="http://www.w3.org/1999/xlink" width="2000" zoomAndPan="magnify" viewBox="0 0 1500 1499.999933" height="2000" preserveAspectRatio="xMidYMid meet" version="1.0"><defs><g/></defs><g fill="#0d4bb8" fill-opacity="1"><g transform="translate(127.009182, 820.874909)"><g><path d="M 80.015625 2.796875 C 70.015625 2.796875 60.613281 0.960938 51.8125 -2.703125 C 43.007812 -6.367188 35.375 -11.398438 28.90625 -17.796875 C 22.4375 -24.203125 17.300781 -31.835938 13.5 -40.703125 C 9.695312 -49.578125 7.796875 -59.210938 7.796875 -69.609375 L 7.796875 -70.015625 C 7.796875 -80.148438 9.660156 -89.679688 13.390625 -98.609375 C 17.128906 -107.546875 22.234375 -115.25 28.703125 -121.71875 C 35.171875 -128.1875 42.9375 -133.320312 52 -137.125 C 61.070312 -140.925781 70.875 -142.828125 81.40625 -142.828125 C 95.675781 -142.828125 107.613281 -140.09375 117.21875 -134.625 C 126.820312 -129.15625 134.691406 -122.21875 140.828125 -113.8125 L 111.625 -91.21875 C 107.613281 -96.144531 103.175781 -100.109375 98.3125 -103.109375 C 93.445312 -106.109375 87.679688 -107.609375 81.015625 -107.609375 C 76.078125 -107.609375 71.570312 -106.609375 67.5 -104.609375 C 63.4375 -102.609375 59.9375 -99.941406 57 -96.609375 C 54.070312 -93.273438 51.773438 -89.34375 50.109375 -84.8125 C 48.441406 -80.28125 47.609375 -75.476562 47.609375 -70.40625 L 47.609375 -70.015625 C 47.609375 -64.804688 48.441406 -59.898438 50.109375 -55.296875 C 51.773438 -50.703125 54.070312 -46.738281 57 -43.40625 C 59.9375 -40.070312 63.4375 -37.4375 67.5 -35.5 C 71.570312 -33.570312 76.078125 -32.609375 81.015625 -32.609375 C 88.210938 -32.609375 94.242188 -34.171875 99.109375 -37.296875 C 103.984375 -40.429688 108.488281 -44.535156 112.625 -49.609375 L 141.828125 -28.796875 C 135.285156 -19.734375 127.179688 -12.203125 117.515625 -6.203125 C 107.847656 -0.203125 95.347656 2.796875 80.015625 2.796875 Z M 80.015625 2.796875 "/></g></g></g><g fill="#0d4bb8" fill-opacity="1"><g transform="translate(273.227205, 820.874909)"><g><path d="M 41.203125 2.40625 C 30.929688 2.40625 22.328125 -0.492188 15.390625 -6.296875 C 8.460938 -12.097656 5 -20.332031 5 -31 L 5 -31.40625 C 5 -42.601562 8.898438 -51.066406 16.703125 -56.796875 C 24.503906 -62.535156 34.738281 -65.40625 47.40625 -65.40625 C 52.34375 -65.40625 57.144531 -65.003906 61.8125 -64.203125 C 66.476562 -63.410156 70.34375 -62.410156 73.40625 -61.203125 L 73.40625 -63.015625 C 73.40625 -68.742188 71.601562 -73.140625 68 -76.203125 C 64.40625 -79.273438 59.007812 -80.8125 51.8125 -80.8125 C 46.070312 -80.8125 40.867188 -80.242188 36.203125 -79.109375 C 31.535156 -77.972656 26.734375 -76.539062 21.796875 -74.8125 L 14 -101.421875 C 20.132812 -103.953125 26.664062 -105.984375 33.59375 -107.515625 C 40.53125 -109.046875 48.601562 -109.8125 57.8125 -109.8125 C 67.414062 -109.8125 75.613281 -108.675781 82.40625 -106.40625 C 89.207031 -104.144531 94.742188 -100.878906 99.015625 -96.609375 C 103.148438 -92.609375 106.117188 -87.773438 107.921875 -82.109375 C 109.722656 -76.441406 110.625 -69.804688 110.625 -62.203125 L 110.625 0 L 73.21875 0 L 73.21875 -11.40625 C 69.476562 -7.269531 64.972656 -3.929688 59.703125 -1.390625 C 54.441406 1.140625 48.273438 2.40625 41.203125 2.40625 Z M 54.8125 -21.40625 C 60.40625 -21.40625 64.96875 -23.035156 68.5 -26.296875 C 72.039062 -29.566406 73.8125 -33.867188 73.8125 -39.203125 L 73.8125 -44.203125 C 71.8125 -45.003906 69.507812 -45.671875 66.90625 -46.203125 C 64.3125 -46.734375 61.613281 -47 58.8125 -47 C 53.34375 -47 49.070312 -45.800781 46 -43.40625 C 42.9375 -41.007812 41.40625 -37.742188 41.40625 -33.609375 L 41.40625 -33.203125 C 41.40625 -29.472656 42.671875 -26.570312 45.203125 -24.5 C 47.734375 -22.4375 50.9375 -21.40625 54.8125 -21.40625 Z M 54.8125 -21.40625 "/></g></g></g><g fill="#0d4bb8" fill-opacity="1"><g transform="translate(393.041995, 820.874909)"><g><path d="M 10.203125 0 L 10.203125 -108.21875 L 48.203125 -108.21875 L 48.203125 -93.421875 C 51.671875 -97.953125 56.003906 -101.953125 61.203125 -105.421875 C 66.410156 -108.890625 72.8125 -110.625 80.40625 -110.625 C 87.613281 -110.625 93.882812 -109.085938 99.21875 -106.015625 C 104.550781 -102.953125 108.6875 -98.617188 111.625 -93.015625 C 116.289062 -98.347656 121.519531 -102.613281 127.3125 -105.8125 C 133.113281 -109.019531 139.953125 -110.625 147.828125 -110.625 C 159.296875 -110.625 168.328125 -107.15625 174.921875 -100.21875 C 181.523438 -93.28125 184.828125 -83.546875 184.828125 -71.015625 L 184.828125 0 L 146.828125 0 L 146.828125 -58.8125 C 146.828125 -64.675781 145.492188 -69.175781 142.828125 -72.3125 C 140.160156 -75.445312 136.554688 -77.015625 132.015625 -77.015625 C 127.484375 -77.015625 123.75 -75.445312 120.8125 -72.3125 C 117.882812 -69.175781 116.421875 -64.675781 116.421875 -58.8125 L 116.421875 0 L 78.609375 0 L 78.609375 -58.8125 C 78.609375 -64.675781 77.238281 -69.175781 74.5 -72.3125 C 71.769531 -75.445312 68.140625 -77.015625 63.609375 -77.015625 C 59.078125 -77.015625 55.375 -75.445312 52.5 -72.3125 C 49.632812 -69.175781 48.203125 -64.675781 48.203125 -58.8125 L 48.203125 0 Z M 10.203125 0 "/></g></g></g><g fill="#0d4bb8" fill-opacity="1"><g transform="translate(587.265885, 820.874909)"><g><path d="M 10.203125 32 L 10.203125 -108.21875 L 48.203125 -108.21875 L 48.203125 -93.8125 C 51.941406 -98.34375 56.34375 -102.273438 61.40625 -105.609375 C 66.476562 -108.953125 73.015625 -110.625 81.015625 -110.625 C 87.410156 -110.625 93.539062 -109.320312 99.40625 -106.71875 C 105.28125 -104.113281 110.382812 -100.410156 114.71875 -95.609375 C 119.050781 -90.804688 122.515625 -84.9375 125.109375 -78 C 127.710938 -71.070312 129.015625 -63.273438 129.015625 -54.609375 L 129.015625 -54.203125 C 129.015625 -45.398438 127.710938 -37.5 125.109375 -30.5 C 122.515625 -23.5 119.050781 -17.566406 114.71875 -12.703125 C 110.382812 -7.835938 105.316406 -4.101562 99.515625 -1.5 C 93.710938 1.101562 87.613281 2.40625 81.21875 2.40625 C 73.082031 2.40625 66.410156 0.835938 61.203125 -2.296875 C 56.003906 -5.429688 51.671875 -9.066406 48.203125 -13.203125 L 48.203125 32 Z M 69.609375 -29.40625 C 75.742188 -29.40625 80.976562 -31.703125 85.3125 -36.296875 C 89.644531 -40.898438 91.8125 -46.804688 91.8125 -54.015625 L 91.8125 -54.40625 C 91.8125 -61.601562 89.644531 -67.503906 85.3125 -72.109375 C 80.976562 -76.710938 75.742188 -79.015625 69.609375 -79.015625 C 63.472656 -79.015625 58.238281 -76.710938 53.90625 -72.109375 C 49.570312 -67.503906 47.40625 -61.601562 47.40625 -54.40625 L 47.40625 -54.015625 C 47.40625 -46.804688 49.570312 -40.898438 53.90625 -36.296875 C 58.238281 -31.703125 63.472656 -29.40625 69.609375 -29.40625 Z M 69.609375 -29.40625 "/></g></g></g><g fill="#0d4bb8" fill-opacity="1"><g transform="translate(722.482579, 820.874909)"><g><path d="M 46.40625 2.40625 C 34.9375 2.40625 25.898438 -1.191406 19.296875 -8.390625 C 12.703125 -15.597656 9.40625 -25.335938 9.40625 -37.609375 L 9.40625 -108.21875 L 47.40625 -108.21875 L 47.40625 -49.609375 C 47.40625 -43.742188 48.835938 -39.242188 51.703125 -36.109375 C 54.578125 -32.972656 58.28125 -31.40625 62.8125 -31.40625 C 67.34375 -31.40625 71.140625 -32.972656 74.203125 -36.109375 C 77.273438 -39.242188 78.8125 -43.742188 78.8125 -49.609375 L 78.8125 -108.21875 L 116.625 -108.21875 L 116.625 0 L 78.8125 0 L 78.8125 -15 C 75.34375 -10.46875 70.972656 -6.429688 65.703125 -2.890625 C 60.441406 0.640625 54.007812 2.40625 46.40625 2.40625 Z M 46.40625 2.40625 "/></g></g></g><g fill="#fe6c0f" fill-opacity="1"><g transform="translate(849.305999, 820.874909)"><g><path d="M 67.40625 2.40625 C 55.007812 2.40625 43.140625 0.4375 31.796875 -3.5 C 20.460938 -7.4375 10.460938 -13.203125 1.796875 -20.796875 L 23.40625 -46.609375 C 30.34375 -41.140625 37.644531 -36.96875 45.3125 -34.09375 C 52.976562 -31.226562 60.8125 -29.796875 68.8125 -29.796875 C 74.144531 -29.796875 78.175781 -30.660156 80.90625 -32.390625 C 83.644531 -34.128906 85.015625 -36.46875 85.015625 -39.40625 L 85.015625 -39.8125 C 85.015625 -42.738281 83.445312 -45.171875 80.3125 -47.109375 C 77.175781 -49.046875 70.804688 -51.144531 61.203125 -53.40625 C 53.742188 -55.144531 46.78125 -57.046875 40.3125 -59.109375 C 33.84375 -61.171875 28.273438 -63.835938 23.609375 -67.109375 C 18.941406 -70.378906 15.238281 -74.445312 12.5 -79.3125 C 9.769531 -84.175781 8.40625 -90.144531 8.40625 -97.21875 L 8.40625 -97.609375 C 8.40625 -104.148438 9.671875 -110.148438 12.203125 -115.609375 C 14.734375 -121.078125 18.296875 -125.78125 22.890625 -129.71875 C 27.492188 -133.65625 33.164062 -136.753906 39.90625 -139.015625 C 46.644531 -141.285156 54.210938 -142.421875 62.609375 -142.421875 C 74.472656 -142.421875 85.140625 -140.851562 94.609375 -137.71875 C 104.078125 -134.582031 112.613281 -129.945312 120.21875 -123.8125 L 100.8125 -96.421875 C 94.414062 -100.953125 87.816406 -104.382812 81.015625 -106.71875 C 74.210938 -109.050781 67.742188 -110.21875 61.609375 -110.21875 C 56.941406 -110.21875 53.441406 -109.347656 51.109375 -107.609375 C 48.773438 -105.878906 47.609375 -103.75 47.609375 -101.21875 L 47.609375 -100.8125 C 47.609375 -97.613281 49.238281 -95.082031 52.5 -93.21875 C 55.769531 -91.351562 62.273438 -89.351562 72.015625 -87.21875 C 87.878906 -83.75 100.507812 -78.878906 109.90625 -72.609375 C 119.3125 -66.335938 124.015625 -56.671875 124.015625 -43.609375 L 124.015625 -43.203125 C 124.015625 -36.140625 122.644531 -29.773438 119.90625 -24.109375 C 117.175781 -18.441406 113.34375 -13.640625 108.40625 -9.703125 C 103.476562 -5.765625 97.515625 -2.757812 90.515625 -0.6875 C 83.515625 1.375 75.8125 2.40625 67.40625 2.40625 Z M 67.40625 2.40625 "/></g></g></g><g fill="#fe6c0f" fill-opacity="1"><g transform="translate(979.722093, 820.874909)"><g><path d="M 10.203125 0 L 10.203125 -146.015625 L 48.203125 -146.015625 L 48.203125 -93.421875 C 51.671875 -97.953125 56.035156 -101.953125 61.296875 -105.421875 C 66.566406 -108.890625 73.003906 -110.625 80.609375 -110.625 C 92.078125 -110.625 101.078125 -107.054688 107.609375 -99.921875 C 114.148438 -92.785156 117.421875 -83.082031 117.421875 -70.8125 L 117.421875 0 L 79.609375 0 L 79.609375 -58.609375 C 79.609375 -64.609375 78.175781 -69.175781 75.3125 -72.3125 C 72.445312 -75.445312 68.742188 -77.015625 64.203125 -77.015625 C 59.671875 -77.015625 55.867188 -75.445312 52.796875 -72.3125 C 49.734375 -69.175781 48.203125 -64.609375 48.203125 -58.609375 L 48.203125 0 Z M 10.203125 0 "/></g></g></g><g fill="#fe6c0f" fill-opacity="1"><g transform="translate(1106.537714, 820.874909)"><g><path d="M 65.40625 2.59375 C 56.875 2.59375 48.941406 1.09375 41.609375 -1.90625 C 34.273438 -4.90625 28.003906 -8.9375 22.796875 -14 C 17.597656 -19.070312 13.5 -25.039062 10.5 -31.90625 C 7.5 -38.769531 6 -46.003906 6 -53.609375 L 6 -54.015625 C 6 -61.609375 7.5 -68.875 10.5 -75.8125 C 13.5 -82.75 17.632812 -88.78125 22.90625 -93.90625 C 28.175781 -99.039062 34.476562 -103.109375 41.8125 -106.109375 C 49.144531 -109.117188 57.144531 -110.625 65.8125 -110.625 C 74.476562 -110.625 82.441406 -109.117188 89.703125 -106.109375 C 96.972656 -103.109375 103.242188 -99.070312 108.515625 -94 C 113.785156 -88.9375 117.921875 -82.972656 120.921875 -76.109375 C 123.921875 -69.242188 125.421875 -62.007812 125.421875 -54.40625 L 125.421875 -54.015625 C 125.421875 -46.410156 123.921875 -39.140625 120.921875 -32.203125 C 117.921875 -25.265625 113.785156 -19.226562 108.515625 -14.09375 C 103.242188 -8.96875 96.90625 -4.90625 89.5 -1.90625 C 82.101562 1.09375 74.070312 2.59375 65.40625 2.59375 Z M 65.8125 -29.609375 C 72.613281 -29.609375 78.113281 -31.972656 82.3125 -36.703125 C 86.507812 -41.441406 88.609375 -47.078125 88.609375 -53.609375 L 88.609375 -54.015625 C 88.609375 -60.679688 86.40625 -66.445312 82 -71.3125 C 77.601562 -76.175781 72.070312 -78.609375 65.40625 -78.609375 C 58.601562 -78.609375 53.132812 -76.207031 49 -71.40625 C 44.875 -66.601562 42.8125 -60.9375 42.8125 -54.40625 L 42.8125 -54.015625 C 42.8125 -47.472656 44.976562 -41.769531 49.3125 -36.90625 C 53.644531 -32.039062 59.144531 -29.609375 65.8125 -29.609375 Z M 65.8125 -29.609375 "/></g></g></g><g fill="#fe6c0f" fill-opacity="1"><g transform="translate(1237.753878, 820.874909)"><g><path d="M 10.203125 32 L 10.203125 -108.21875 L 48.203125 -108.21875 L 48.203125 -93.8125 C 51.941406 -98.34375 56.34375 -102.273438 61.40625 -105.609375 C 66.476562 -108.953125 73.015625 -110.625 81.015625 -110.625 C 87.410156 -110.625 93.539062 -109.320312 99.40625 -106.71875 C 105.28125 -104.113281 110.382812 -100.410156 114.71875 -95.609375 C 119.050781 -90.804688 122.515625 -84.9375 125.109375 -78 C 127.710938 -71.070312 129.015625 -63.273438 129.015625 -54.609375 L 129.015625 -54.203125 C 129.015625 -45.398438 127.710938 -37.5 125.109375 -30.5 C 122.515625 -23.5 119.050781 -17.566406 114.71875 -12.703125 C 110.382812 -7.835938 105.316406 -4.101562 99.515625 -1.5 C 93.710938 1.101562 87.613281 2.40625 81.21875 2.40625 C 73.082031 2.40625 66.410156 0.835938 61.203125 -2.296875 C 56.003906 -5.429688 51.671875 -9.066406 48.203125 -13.203125 L 48.203125 32 Z M 69.609375 -29.40625 C 75.742188 -29.40625 80.976562 -31.703125 85.3125 -36.296875 C 89.644531 -40.898438 91.8125 -46.804688 91.8125 -54.015625 L 91.8125 -54.40625 C 91.8125 -61.601562 89.644531 -67.503906 85.3125 -72.109375 C 80.976562 -76.710938 75.742188 -79.015625 69.609375 -79.015625 C 63.472656 -79.015625 58.238281 -76.710938 53.90625 -72.109375 C 49.570312 -67.503906 47.40625 -61.601562 47.40625 -54.40625 L 47.40625 -54.015625 C 47.40625 -46.804688 49.570312 -40.898438 53.90625 -36.296875 C 58.238281 -31.703125 63.472656 -29.40625 69.609375 -29.40625 Z M 69.609375 -29.40625 "/></g></g></g></svg>