<svg xmlns="http://www.w3.org/2000/svg" xmlns:xlink="http://www.w3.org/1999/xlink" width="1920" zoomAndPan="magnify" viewBox="0 0 1440 809.999993" height="1080" preserveAspectRatio="xMidYMid meet" version="1.0"><defs><g/><clipPath id="cd5f089b09"><rect x="0" width="1071" y="0" height="207"/></clipPath><clipPath id="86b9474a54"><path d="M 133.472656 374.507812 L 280.914062 374.507812 L 280.914062 533 L 133.472656 533 Z M 133.472656 374.507812 " clip-rule="nonzero"/></clipPath><clipPath id="3ee3da864d"><path d="M 203.972656 374.507812 L 210.414062 374.507812 C 229.113281 374.507812 247.046875 381.9375 260.265625 395.15625 C 273.488281 408.378906 280.914062 426.308594 280.914062 445.007812 L 280.914062 462.4375 C 280.914062 481.136719 273.488281 499.066406 260.265625 512.289062 C 247.046875 525.507812 229.113281 532.9375 210.414062 532.9375 L 203.972656 532.9375 C 185.273438 532.9375 167.339844 525.507812 154.121094 512.289062 C 140.898438 499.066406 133.472656 481.136719 133.472656 462.4375 L 133.472656 445.007812 C 133.472656 426.308594 140.898438 408.378906 154.121094 395.15625 C 167.339844 381.9375 185.273438 374.507812 203.972656 374.507812 Z M 203.972656 374.507812 " clip-rule="nonzero"/></clipPath><clipPath id="bf0fa737bf"><path d="M 0.472656 0.507812 L 147.914062 0.507812 L 147.914062 159 L 0.472656 159 Z M 0.472656 0.507812 " clip-rule="nonzero"/></clipPath><clipPath id="a4dd7aaf4e"><path d="M 70.972656 0.507812 L 77.414062 0.507812 C 96.113281 0.507812 114.046875 7.9375 127.265625 21.15625 C 140.488281 34.378906 147.914062 52.308594 147.914062 71.007812 L 147.914062 88.4375 C 147.914062 107.136719 140.488281 125.066406 127.265625 138.289062 C 114.046875 151.507812 96.113281 158.9375 77.414062 158.9375 L 70.972656 158.9375 C 52.273438 158.9375 34.339844 151.507812 21.121094 138.289062 C 7.898438 125.066406 0.472656 107.136719 0.472656 88.4375 L 0.472656 71.007812 C 0.472656 52.308594 7.898438 34.378906 21.121094 21.15625 C 34.339844 7.9375 52.273438 0.507812 70.972656 0.507812 Z M 70.972656 0.507812 " clip-rule="nonzero"/></clipPath><clipPath id="29c8b1eb86"><rect x="0" width="148" y="0" height="159"/></clipPath><clipPath id="10413eb2b1"><path d="M 56 434 L 194 434 L 194 570 L 56 570 Z M 56 434 " clip-rule="nonzero"/></clipPath><clipPath id="d6b8aa6cdb"><path d="M 138.144531 394.101562 L 231.515625 498.1875 L 135.90625 583.953125 L 42.535156 479.867188 Z M 138.144531 394.101562 " clip-rule="nonzero"/></clipPath><clipPath id="b8ec0d710c"><path d="M 191.703125 479.277344 L 170.070312 546.347656 C 166.378906 557.800781 156.84375 566.40625 145.070312 568.910156 C 133.300781 571.414062 121.085938 567.433594 113.050781 558.476562 L 65.121094 505.042969 C 57.085938 496.085938 54.453125 483.515625 58.214844 472.082031 C 61.976562 460.652344 71.566406 452.105469 83.351562 449.671875 L 152.367188 435.425781 C 164.246094 432.976562 176.535156 437.019531 184.632812 446.050781 C 192.734375 455.078125 195.425781 467.734375 191.703125 479.277344 Z M 191.703125 479.277344 " clip-rule="nonzero"/></clipPath><clipPath id="c7c4689304"><path d="M 0 0 L 138 0 L 138 136 L 0 136 Z M 0 0 " clip-rule="nonzero"/></clipPath><clipPath id="ef716b67b1"><path d="M 82.144531 -39.898438 L 175.515625 64.1875 L 79.90625 149.953125 L -13.464844 45.867188 Z M 82.144531 -39.898438 " clip-rule="nonzero"/></clipPath><clipPath id="19728b3713"><path d="M 135.703125 45.277344 L 114.070312 112.347656 C 110.378906 123.800781 100.84375 132.40625 89.070312 134.910156 C 77.300781 137.414062 65.085938 133.433594 57.050781 124.476562 L 9.121094 71.042969 C 1.085938 62.085938 -1.546875 49.515625 2.214844 38.082031 C 5.976562 26.652344 15.566406 18.105469 27.351562 15.671875 L 96.367188 1.425781 C 108.246094 -1.023438 120.535156 3.019531 128.632812 12.050781 C 136.734375 21.078125 139.425781 33.734375 135.703125 45.277344 Z M 135.703125 45.277344 " clip-rule="nonzero"/></clipPath><clipPath id="eb85de1fb8"><rect x="0" width="138" y="0" height="136"/></clipPath><clipPath id="a2540cb162"><path d="M 0 392 L 297.753906 392 L 297.753906 618 L 0 618 Z M 0 392 " clip-rule="nonzero"/></clipPath><clipPath id="8ec1527360"><path d="M 129.234375 453.722656 L 239.511719 453.722656 L 239.511719 520.015625 L 129.234375 520.015625 Z M 129.234375 453.722656 " clip-rule="nonzero"/></clipPath><clipPath id="3be4360dd3"><path d="M 0.234375 0.722656 L 110.511719 0.722656 L 110.511719 67.015625 L 0.234375 67.015625 Z M 0.234375 0.722656 " clip-rule="nonzero"/></clipPath><clipPath id="01be67b078"><rect x="0" width="111" y="0" height="68"/></clipPath><clipPath id="34307f4f62"><path d="M 100.328125 411.371094 L 166.621094 411.371094 L 166.621094 521.648438 L 100.328125 521.648438 Z M 100.328125 411.371094 " clip-rule="nonzero"/></clipPath><clipPath id="5a2df71db7"><path d="M 0.328125 0.371094 L 66.621094 0.371094 L 66.621094 110.648438 L 0.328125 110.648438 Z M 0.328125 0.371094 " clip-rule="nonzero"/></clipPath><clipPath id="f25b2b7357"><rect x="0" width="67" y="0" height="111"/></clipPath><clipPath id="6687d37f71"><path d="M 28.167969 412 L 258.417969 412 L 258.417969 571 L 28.167969 571 Z M 28.167969 412 " clip-rule="nonzero"/></clipPath></defs><g transform="matrix(1, 0, 0, 1, 358, 316)"><g clip-path="url(#cd5f089b09)"><g fill="#0d4bb8" fill-opacity="1"><g transform="translate(1.09706, 164.531084)"><g><path d="M 68.59375 2.40625 C 60.019531 2.40625 51.957031 0.832031 44.40625 -2.3125 C 36.863281 -5.457031 30.320312 -9.773438 24.78125 -15.265625 C 19.238281 -20.753906 14.835938 -27.300781 11.578125 -34.90625 C 8.316406 -42.507812 6.6875 -50.769531 6.6875 -59.6875 L 6.6875 -60.03125 C 6.6875 -68.71875 8.285156 -76.890625 11.484375 -84.546875 C 14.691406 -92.210938 19.066406 -98.816406 24.609375 -104.359375 C 30.148438 -109.898438 36.804688 -114.300781 44.578125 -117.5625 C 52.359375 -120.820312 60.765625 -122.453125 69.796875 -122.453125 C 82.035156 -122.453125 92.269531 -120.109375 100.5 -115.421875 C 108.726562 -110.734375 115.472656 -104.785156 120.734375 -97.578125 L 95.703125 -78.203125 C 92.265625 -82.429688 88.457031 -85.832031 84.28125 -88.40625 C 80.113281 -90.976562 75.171875 -92.265625 69.453125 -92.265625 C 65.222656 -92.265625 61.363281 -91.40625 57.875 -89.6875 C 54.394531 -87.976562 51.394531 -85.691406 48.875 -82.828125 C 46.363281 -79.972656 44.390625 -76.601562 42.953125 -72.71875 C 41.523438 -68.832031 40.8125 -64.71875 40.8125 -60.375 L 40.8125 -60.03125 C 40.8125 -55.570312 41.523438 -51.367188 42.953125 -47.421875 C 44.390625 -43.472656 46.363281 -40.066406 48.875 -37.203125 C 51.394531 -34.347656 54.394531 -32.09375 57.875 -30.4375 C 61.363281 -28.78125 65.222656 -27.953125 69.453125 -27.953125 C 75.628906 -27.953125 80.800781 -29.296875 84.96875 -31.984375 C 89.144531 -34.671875 93.003906 -38.1875 96.546875 -42.53125 L 121.59375 -24.703125 C 115.988281 -16.921875 109.039062 -10.457031 100.75 -5.3125 C 92.46875 -0.164062 81.75 2.40625 68.59375 2.40625 Z M 68.59375 2.40625 "/></g></g></g><g fill="#0d4bb8" fill-opacity="1"><g transform="translate(126.454385, 164.531084)"><g><path d="M 35.328125 2.0625 C 26.523438 2.0625 19.148438 -0.421875 13.203125 -5.390625 C 7.253906 -10.367188 4.28125 -17.429688 4.28125 -26.578125 L 4.28125 -26.921875 C 4.28125 -36.523438 7.625 -43.785156 14.3125 -48.703125 C 21.007812 -53.617188 29.785156 -56.078125 40.640625 -56.078125 C 44.867188 -56.078125 48.984375 -55.734375 52.984375 -55.046875 C 56.992188 -54.359375 60.3125 -53.503906 62.9375 -52.484375 L 62.9375 -54.015625 C 62.9375 -58.929688 61.390625 -62.703125 58.296875 -65.328125 C 55.210938 -67.960938 50.585938 -69.28125 44.421875 -69.28125 C 39.503906 -69.28125 35.039062 -68.796875 31.03125 -67.828125 C 27.03125 -66.859375 22.914062 -65.628906 18.6875 -64.140625 L 12 -86.953125 C 17.257812 -89.117188 22.863281 -90.859375 28.8125 -92.171875 C 34.757812 -93.492188 41.675781 -94.15625 49.5625 -94.15625 C 57.789062 -94.15625 64.820312 -93.179688 70.65625 -91.234375 C 76.488281 -89.296875 81.234375 -86.492188 84.890625 -82.828125 C 88.429688 -79.398438 90.972656 -75.253906 92.515625 -70.390625 C 94.066406 -65.535156 94.84375 -59.851562 94.84375 -53.34375 L 94.84375 0 L 62.765625 0 L 62.765625 -9.78125 C 59.566406 -6.226562 55.707031 -3.363281 51.1875 -1.1875 C 46.675781 0.976562 41.390625 2.0625 35.328125 2.0625 Z M 46.984375 -18.34375 C 51.785156 -18.34375 55.703125 -19.742188 58.734375 -22.546875 C 61.765625 -25.347656 63.28125 -29.035156 63.28125 -33.609375 L 63.28125 -37.90625 C 61.570312 -38.59375 59.597656 -39.160156 57.359375 -39.609375 C 55.128906 -40.066406 52.816406 -40.296875 50.421875 -40.296875 C 45.734375 -40.296875 42.070312 -39.265625 39.4375 -37.203125 C 36.8125 -35.148438 35.5 -32.351562 35.5 -28.8125 L 35.5 -28.46875 C 35.5 -25.269531 36.582031 -22.78125 38.75 -21 C 40.925781 -19.226562 43.671875 -18.34375 46.984375 -18.34375 Z M 46.984375 -18.34375 "/></g></g></g><g fill="#0d4bb8" fill-opacity="1"><g transform="translate(229.175364, 164.531084)"><g><path d="M 8.75 0 L 8.75 -92.78125 L 41.328125 -92.78125 L 41.328125 -80.09375 C 44.304688 -83.976562 48.023438 -87.40625 52.484375 -90.375 C 56.941406 -93.351562 62.425781 -94.84375 68.9375 -94.84375 C 75.113281 -94.84375 80.488281 -93.523438 85.0625 -90.890625 C 89.632812 -88.265625 93.179688 -84.550781 95.703125 -79.75 C 99.703125 -84.320312 104.1875 -87.976562 109.15625 -90.71875 C 114.132812 -93.46875 119.992188 -94.84375 126.734375 -94.84375 C 136.566406 -94.84375 144.3125 -91.867188 149.96875 -85.921875 C 155.632812 -79.972656 158.46875 -71.625 158.46875 -60.875 L 158.46875 0 L 125.875 0 L 125.875 -50.421875 C 125.875 -55.453125 124.726562 -59.3125 122.4375 -62 C 120.15625 -64.6875 117.070312 -66.03125 113.1875 -66.03125 C 109.300781 -66.03125 106.097656 -64.6875 103.578125 -62 C 101.066406 -59.3125 99.8125 -55.453125 99.8125 -50.421875 L 99.8125 0 L 67.40625 0 L 67.40625 -50.421875 C 67.40625 -55.453125 66.234375 -59.3125 63.890625 -62 C 61.546875 -64.6875 58.425781 -66.03125 54.53125 -66.03125 C 50.644531 -66.03125 47.472656 -64.6875 45.015625 -62 C 42.554688 -59.3125 41.328125 -55.453125 41.328125 -50.421875 L 41.328125 0 Z M 8.75 0 "/></g></g></g><g fill="#0d4bb8" fill-opacity="1"><g transform="translate(395.689693, 164.531084)"><g><path d="M 8.75 27.4375 L 8.75 -92.78125 L 41.328125 -92.78125 L 41.328125 -80.4375 C 44.535156 -84.320312 48.3125 -87.691406 52.65625 -90.546875 C 57 -93.410156 62.597656 -94.84375 69.453125 -94.84375 C 74.941406 -94.84375 80.203125 -93.726562 85.234375 -91.5 C 90.265625 -89.269531 94.632812 -86.09375 98.34375 -81.96875 C 102.0625 -77.851562 105.035156 -72.820312 107.265625 -66.875 C 109.503906 -60.9375 110.625 -54.25 110.625 -46.8125 L 110.625 -46.46875 C 110.625 -38.925781 109.503906 -32.15625 107.265625 -26.15625 C 105.035156 -20.15625 102.0625 -15.066406 98.34375 -10.890625 C 94.632812 -6.710938 90.289062 -3.507812 85.3125 -1.28125 C 80.34375 0.945312 75.113281 2.0625 69.625 2.0625 C 62.65625 2.0625 56.941406 0.714844 52.484375 -1.96875 C 48.023438 -4.65625 44.304688 -7.769531 41.328125 -11.3125 L 41.328125 27.4375 Z M 59.6875 -25.203125 C 64.945312 -25.203125 69.429688 -27.175781 73.140625 -31.125 C 76.859375 -35.070312 78.71875 -40.132812 78.71875 -46.3125 L 78.71875 -46.640625 C 78.71875 -52.816406 76.859375 -57.878906 73.140625 -61.828125 C 69.429688 -65.773438 64.945312 -67.75 59.6875 -67.75 C 54.425781 -67.75 49.9375 -65.773438 46.21875 -61.828125 C 42.5 -57.878906 40.640625 -52.816406 40.640625 -46.640625 L 40.640625 -46.3125 C 40.640625 -40.132812 42.5 -35.070312 46.21875 -31.125 C 49.9375 -27.175781 54.425781 -25.203125 59.6875 -25.203125 Z M 59.6875 -25.203125 "/></g></g></g><g fill="#0d4bb8" fill-opacity="1"><g transform="translate(511.615175, 164.531084)"><g><path d="M 39.78125 2.0625 C 29.945312 2.0625 22.203125 -1.023438 16.546875 -7.203125 C 10.890625 -13.378906 8.0625 -21.722656 8.0625 -32.234375 L 8.0625 -92.78125 L 40.640625 -92.78125 L 40.640625 -42.53125 C 40.640625 -37.5 41.867188 -33.640625 44.328125 -30.953125 C 46.785156 -28.265625 49.957031 -26.921875 53.84375 -26.921875 C 57.738281 -26.921875 61 -28.265625 63.625 -30.953125 C 66.257812 -33.640625 67.578125 -37.5 67.578125 -42.53125 L 67.578125 -92.78125 L 99.984375 -92.78125 L 99.984375 0 L 67.578125 0 L 67.578125 -12.859375 C 64.597656 -8.972656 60.847656 -5.515625 56.328125 -2.484375 C 51.816406 0.542969 46.300781 2.0625 39.78125 2.0625 Z M 39.78125 2.0625 "/></g></g></g><g fill="#fe6c0f" fill-opacity="1"><g transform="translate(620.343066, 164.531084)"><g><path d="M 57.796875 2.0625 C 47.160156 2.0625 36.984375 0.371094 27.265625 -3 C 17.546875 -6.375 8.972656 -11.320312 1.546875 -17.84375 L 20.0625 -39.953125 C 26.007812 -35.265625 32.269531 -31.691406 38.84375 -29.234375 C 45.414062 -26.773438 52.132812 -25.546875 59 -25.546875 C 63.570312 -25.546875 67.03125 -26.289062 69.375 -27.78125 C 71.71875 -29.269531 72.890625 -31.269531 72.890625 -33.78125 L 72.890625 -34.125 C 72.890625 -36.644531 71.546875 -38.734375 68.859375 -40.390625 C 66.171875 -42.046875 60.710938 -43.847656 52.484375 -45.796875 C 46.078125 -47.273438 40.097656 -48.898438 34.546875 -50.671875 C 29.003906 -52.453125 24.234375 -54.738281 20.234375 -57.53125 C 16.234375 -60.332031 13.0625 -63.820312 10.71875 -68 C 8.375 -72.175781 7.203125 -77.289062 7.203125 -83.34375 L 7.203125 -83.6875 C 7.203125 -89.289062 8.285156 -94.4375 10.453125 -99.125 C 12.628906 -103.8125 15.6875 -107.84375 19.625 -111.21875 C 23.570312 -114.59375 28.429688 -117.25 34.203125 -119.1875 C 39.984375 -121.132812 46.472656 -122.109375 53.671875 -122.109375 C 63.847656 -122.109375 72.992188 -120.765625 81.109375 -118.078125 C 89.234375 -115.390625 96.554688 -111.414062 103.078125 -106.15625 L 86.4375 -82.65625 C 80.945312 -86.550781 75.285156 -89.5 69.453125 -91.5 C 63.628906 -93.5 58.085938 -94.5 52.828125 -94.5 C 48.816406 -94.5 45.8125 -93.753906 43.8125 -92.265625 C 41.8125 -90.773438 40.8125 -88.945312 40.8125 -86.78125 L 40.8125 -86.4375 C 40.8125 -83.6875 42.210938 -81.507812 45.015625 -79.90625 C 47.816406 -78.3125 53.390625 -76.601562 61.734375 -74.78125 C 75.347656 -71.800781 86.179688 -67.625 94.234375 -62.25 C 102.296875 -56.875 106.328125 -48.585938 106.328125 -37.390625 L 106.328125 -37.046875 C 106.328125 -30.984375 105.15625 -25.519531 102.8125 -20.65625 C 100.46875 -15.800781 97.179688 -11.6875 92.953125 -8.3125 C 88.722656 -4.945312 83.601562 -2.375 77.59375 -0.59375 C 71.59375 1.175781 64.992188 2.0625 57.796875 2.0625 Z M 57.796875 2.0625 "/></g></g></g><g fill="#fe6c0f" fill-opacity="1"><g transform="translate(732.152888, 164.531084)"><g><path d="M 8.75 0 L 8.75 -125.1875 L 41.328125 -125.1875 L 41.328125 -80.09375 C 44.304688 -83.976562 48.050781 -87.40625 52.5625 -90.375 C 57.082031 -93.351562 62.597656 -94.84375 69.109375 -94.84375 C 78.941406 -94.84375 86.660156 -91.78125 92.265625 -85.65625 C 97.867188 -79.539062 100.671875 -71.226562 100.671875 -60.71875 L 100.671875 0 L 68.25 0 L 68.25 -50.25 C 68.25 -55.394531 67.019531 -59.3125 64.5625 -62 C 62.101562 -64.6875 58.929688 -66.03125 55.046875 -66.03125 C 51.160156 -66.03125 47.898438 -64.6875 45.265625 -62 C 42.640625 -59.3125 41.328125 -55.394531 41.328125 -50.25 L 41.328125 0 Z M 8.75 0 "/></g></g></g><g fill="#fe6c0f" fill-opacity="1"><g transform="translate(840.875929, 164.531084)"><g><path d="M 56.078125 2.234375 C 48.765625 2.234375 41.960938 0.945312 35.671875 -1.625 C 29.378906 -4.195312 24.003906 -7.65625 19.546875 -12 C 15.085938 -16.34375 11.570312 -21.457031 9 -27.34375 C 6.425781 -33.238281 5.140625 -39.445312 5.140625 -45.96875 L 5.140625 -46.3125 C 5.140625 -52.820312 6.425781 -59.050781 9 -65 C 11.570312 -70.945312 15.113281 -76.117188 19.625 -80.515625 C 24.144531 -84.921875 29.550781 -88.410156 35.84375 -90.984375 C 42.132812 -93.554688 48.992188 -94.84375 56.421875 -94.84375 C 63.859375 -94.84375 70.691406 -93.554688 76.921875 -90.984375 C 83.148438 -88.410156 88.519531 -84.953125 93.03125 -80.609375 C 97.550781 -76.265625 101.097656 -71.144531 103.671875 -65.25 C 106.242188 -59.363281 107.53125 -53.160156 107.53125 -46.640625 L 107.53125 -46.3125 C 107.53125 -39.789062 106.242188 -33.554688 103.671875 -27.609375 C 101.097656 -21.660156 97.550781 -16.484375 93.03125 -12.078125 C 88.519531 -7.679688 83.09375 -4.195312 76.75 -1.625 C 70.40625 0.945312 63.515625 2.234375 56.078125 2.234375 Z M 56.421875 -25.375 C 62.253906 -25.375 66.96875 -27.40625 70.5625 -31.46875 C 74.164062 -35.53125 75.96875 -40.363281 75.96875 -45.96875 L 75.96875 -46.3125 C 75.96875 -52.019531 74.082031 -56.960938 70.3125 -61.140625 C 66.539062 -65.316406 61.796875 -67.40625 56.078125 -67.40625 C 50.242188 -67.40625 45.554688 -65.34375 42.015625 -61.21875 C 38.472656 -57.101562 36.703125 -52.242188 36.703125 -46.640625 L 36.703125 -46.3125 C 36.703125 -40.707031 38.554688 -35.816406 42.265625 -31.640625 C 45.984375 -27.460938 50.703125 -25.375 56.421875 -25.375 Z M 56.421875 -25.375 "/></g></g></g><g fill="#fe6c0f" fill-opacity="1"><g transform="translate(953.371703, 164.531084)"><g><path d="M 8.75 27.4375 L 8.75 -92.78125 L 41.328125 -92.78125 L 41.328125 -80.4375 C 44.535156 -84.320312 48.3125 -87.691406 52.65625 -90.546875 C 57 -93.410156 62.597656 -94.84375 69.453125 -94.84375 C 74.941406 -94.84375 80.203125 -93.726562 85.234375 -91.5 C 90.265625 -89.269531 94.632812 -86.09375 98.34375 -81.96875 C 102.0625 -77.851562 105.035156 -72.820312 107.265625 -66.875 C 109.503906 -60.9375 110.625 -54.25 110.625 -46.8125 L 110.625 -46.46875 C 110.625 -38.925781 109.503906 -32.15625 107.265625 -26.15625 C 105.035156 -20.15625 102.0625 -15.066406 98.34375 -10.890625 C 94.632812 -6.710938 90.289062 -3.507812 85.3125 -1.28125 C 80.34375 0.945312 75.113281 2.0625 69.625 2.0625 C 62.65625 2.0625 56.941406 0.714844 52.484375 -1.96875 C 48.023438 -4.65625 44.304688 -7.769531 41.328125 -11.3125 L 41.328125 27.4375 Z M 59.6875 -25.203125 C 64.945312 -25.203125 69.429688 -27.175781 73.140625 -31.125 C 76.859375 -35.070312 78.71875 -40.132812 78.71875 -46.3125 L 78.71875 -46.640625 C 78.71875 -52.816406 76.859375 -57.878906 73.140625 -61.828125 C 69.429688 -65.773438 64.945312 -67.75 59.6875 -67.75 C 54.425781 -67.75 49.9375 -65.773438 46.21875 -61.828125 C 42.5 -57.878906 40.640625 -52.816406 40.640625 -46.640625 L 40.640625 -46.3125 C 40.640625 -40.132812 42.5 -35.070312 46.21875 -31.125 C 49.9375 -27.175781 54.425781 -25.203125 59.6875 -25.203125 Z M 59.6875 -25.203125 "/></g></g></g></g></g><path fill="#0d4bb8" d="M 164.152344 297.03125 C 168.894531 297.03125 172.742188 293.183594 172.742188 288.441406 L 172.742188 271.8125 C 172.742188 250.304688 190.265625 232.78125 211.839844 232.78125 C 233.417969 232.78125 250.941406 250.304688 250.941406 271.8125 L 250.941406 288.441406 C 250.941406 293.183594 254.789062 297.03125 259.53125 297.03125 C 264.273438 297.03125 268.121094 293.183594 268.121094 288.441406 L 268.121094 274.148438 C 268.121094 244.117188 245.582031 217.730469 215.550781 215.738281 C 182.910156 213.609375 155.5625 239.582031 155.5625 271.8125 L 155.5625 288.441406 C 155.5625 293.183594 159.410156 297.03125 164.152344 297.03125 Z M 164.152344 297.03125 " fill-opacity="1" fill-rule="nonzero"/><path fill="#fe6c0f" d="M 344.808594 520.359375 L 325.910156 336.542969 C 324.398438 321.90625 312.097656 310.84375 297.394531 310.84375 L 126.289062 310.84375 C 111.582031 310.84375 99.285156 321.976562 97.769531 336.542969 L 93.03125 382.308594 C 89.867188 413.023438 119.074219 437.007812 148.554688 428.003906 L 164.5625 423.125 C 182.773438 417.558594 203.113281 426.769531 210.261719 446.972656 C 212.734375 453.980469 212.390625 461.675781 210.191406 468.824219 L 203.113281 491.910156 C 193.355469 523.796875 217.203125 556.023438 250.527344 556.023438 L 312.648438 556.023438 C 331.820312 555.957031 346.800781 539.394531 344.808594 520.359375 Z M 344.808594 520.359375 " fill-opacity="1" fill-rule="nonzero"/><path fill="#0d4bb8" d="M 170.609375 442.78125 L 78.050781 471.023438 C 64.582031 475.144531 63.621094 493.835938 76.605469 499.332031 L 98.664062 508.609375 C 110.347656 513.558594 119.691406 522.835938 124.640625 534.585938 L 133.917969 556.644531 C 139.414062 569.628906 158.105469 568.667969 162.226562 555.199219 L 190.46875 462.636719 C 194.25 450.476562 182.84375 439.070312 170.609375 442.78125 Z M 170.609375 442.78125 " fill-opacity="1" fill-rule="nonzero"/><g clip-path="url(#86b9474a54)"><g clip-path="url(#3ee3da864d)"><g transform="matrix(1, 0, 0, 1, 133, 374)"><g clip-path="url(#29c8b1eb86)"><g clip-path="url(#bf0fa737bf)"><g clip-path="url(#a4dd7aaf4e)"><path fill="#fe6c0f" d="M 0.472656 0.507812 L 147.914062 0.507812 L 147.914062 158.894531 L 0.472656 158.894531 Z M 0.472656 0.507812 " fill-opacity="1" fill-rule="nonzero"/></g></g></g></g></g></g><g clip-path="url(#10413eb2b1)"><g clip-path="url(#d6b8aa6cdb)"><g clip-path="url(#b8ec0d710c)"><g transform="matrix(1, 0, 0, 1, 56, 434)"><g clip-path="url(#eb85de1fb8)"><g clip-path="url(#c7c4689304)"><g clip-path="url(#ef716b67b1)"><g clip-path="url(#19728b3713)"><path fill="#ffffff" d="M 90.632812 -80.660156 L 216.535156 59.695312 L 95.960938 167.851562 L -29.941406 27.496094 Z M 90.632812 -80.660156 " fill-opacity="1" fill-rule="nonzero"/></g></g></g></g></g></g></g></g><path fill="#ffffff" d="M 136.6875 525.480469 C 134.628906 525.480469 132.59375 525.15625 130.570312 524.5 L 36.808594 493.230469 C 35.105469 497.644531 34.257812 503.339844 34.257812 511.648438 C 40.375 515.1875 46.339844 522.3125 46.339844 534.585938 C 46.339844 542.105469 42.578125 547.515625 39.34375 551.109375 C 53.253906 567.246094 91.53125 578.851562 136.703125 578.851562 C 193.617188 578.851562 239.738281 560.433594 239.738281 537.753906 C 239.738281 532.742188 239.738281 512.277344 239.738281 492.183594 L 142.78125 524.5 C 140.785156 525.15625 138.75 525.480469 136.6875 525.480469 Z M 136.6875 525.480469 " fill-opacity="1" fill-rule="nonzero"/><g clip-path="url(#a2540cb162)"><path fill="#ffffff" d="M 293.277344 444.363281 L 138.722656 392.84375 C 137.382812 392.40625 135.980469 392.40625 134.652344 392.84375 L -19.902344 444.363281 C -22.527344 445.238281 -24.304688 447.699219 -24.304688 450.46875 C -24.304688 453.238281 -22.527344 455.699219 -19.902344 456.574219 L 15.53125 468.382812 C 7.378906 477.835938 2.636719 491.167969 0.898438 512.855469 C -4.703125 515.496094 -8.65625 521.125 -8.65625 527.746094 C -8.65625 534.480469 -4.613281 540.214844 1.15625 542.800781 C -3.878906 586.65625 -30.140625 601.277344 -30.140625 605.023438 C -30.140625 606.929688 -9.804688 617.902344 -4.972656 617.902344 C 2.496094 617.902344 20.425781 605.230469 20.425781 577.859375 C 20.425781 561.734375 18.96875 549.550781 17.4375 540.910156 C 21.570312 537.90625 24.441406 533.257812 24.441406 527.746094 C 24.441406 521.730469 21.082031 516.707031 16.277344 513.808594 C 18.996094 478.019531 30.058594 472.027344 56.820312 460.925781 C 59.5 459.871094 64.5625 457.824219 67.488281 456.613281 C 72.742188 454.449219 77.492188 452.515625 82.054688 450.6875 C 96.773438 444.839844 109.214844 440.140625 118.707031 436.648438 C 129.101562 432.9375 133.765625 431.585938 133.933594 431.535156 C 137.910156 430.195312 142.34375 432.347656 143.707031 436.402344 C 145.058594 440.449219 142.894531 444.828125 138.839844 446.191406 C 138.53125 446.296875 120.445312 451.460938 73.398438 470.910156 C 70.371094 472.15625 67.488281 473.292969 64.742188 474.371094 C 59.167969 476.574219 54.542969 478.339844 50.664062 480.117188 L 134.652344 508.105469 C 135.324219 508.3125 135.992188 508.425781 136.6875 508.425781 C 137.382812 508.425781 138.054688 508.3125 138.722656 508.089844 L 293.277344 456.574219 C 295.90625 455.699219 297.683594 453.238281 297.683594 450.46875 C 297.683594 447.699219 295.90625 445.238281 293.277344 444.363281 Z M 293.277344 444.363281 " fill-opacity="1" fill-rule="nonzero"/></g><g clip-path="url(#8ec1527360)"><g transform="matrix(1, 0, 0, 1, 129, 453)"><g clip-path="url(#01be67b078)"><g clip-path="url(#3be4360dd3)"><path fill="#ffffff" d="M 0.234375 0.722656 L 110.550781 0.722656 L 110.550781 67.015625 L 0.234375 67.015625 Z M 0.234375 0.722656 " fill-opacity="1" fill-rule="nonzero"/></g></g></g></g><g clip-path="url(#34307f4f62)"><g transform="matrix(1, 0, 0, 1, 100, 411)"><g clip-path="url(#f25b2b7357)"><g clip-path="url(#5a2df71db7)"><path fill="#ffffff" d="M 0.328125 110.648438 L 0.328125 0.332031 L 66.621094 0.332031 L 66.621094 110.648438 Z M 0.328125 110.648438 " fill-opacity="1" fill-rule="nonzero"/></g></g></g></g><path fill="#0d4bb8" d="M 145.578125 505.464844 C 144.132812 505.464844 142.707031 505.242188 141.289062 504.78125 L 75.539062 482.851562 C 74.347656 485.949219 73.75 489.941406 73.75 495.765625 C 78.039062 498.25 82.222656 503.246094 82.222656 511.851562 C 82.222656 517.125 79.585938 520.917969 77.316406 523.441406 C 87.070312 534.757812 113.914062 542.894531 145.589844 542.894531 C 185.5 542.894531 217.839844 529.976562 217.839844 514.074219 C 217.839844 510.558594 217.839844 496.207031 217.839844 482.121094 L 149.851562 504.78125 C 148.449219 505.242188 147.023438 505.464844 145.578125 505.464844 Z M 145.578125 505.464844 " fill-opacity="1" fill-rule="nonzero"/><g clip-path="url(#6687d37f71)"><path fill="#0d4bb8" d="M 255.386719 448.585938 L 147.007812 412.457031 C 146.066406 412.152344 145.082031 412.152344 144.152344 412.457031 L 35.769531 448.585938 C 33.929688 449.199219 32.683594 450.925781 32.683594 452.867188 C 32.683594 454.808594 33.929688 456.53125 35.769531 457.148438 L 60.617188 465.429688 C 54.902344 472.058594 51.578125 481.40625 50.359375 496.617188 C 46.429688 498.46875 43.65625 502.414062 43.65625 507.054688 C 43.65625 511.78125 46.492188 515.796875 50.539062 517.613281 C 47.007812 548.367188 28.589844 558.617188 28.589844 561.246094 C 28.589844 562.582031 42.851562 570.277344 46.238281 570.277344 C 51.476562 570.277344 64.050781 561.390625 64.050781 542.199219 C 64.050781 530.890625 63.027344 522.347656 61.953125 516.285156 C 64.851562 514.183594 66.867188 510.921875 66.867188 507.054688 C 66.867188 502.839844 64.511719 499.316406 61.140625 497.285156 C 63.046875 472.183594 70.804688 467.984375 89.574219 460.199219 C 91.453125 459.457031 95 458.023438 97.050781 457.175781 C 100.738281 455.65625 104.070312 454.300781 107.265625 453.019531 C 117.589844 448.917969 126.3125 445.621094 132.96875 443.175781 C 140.257812 440.574219 143.527344 439.625 143.644531 439.589844 C 146.4375 438.648438 149.542969 440.15625 150.5 443.003906 C 151.449219 445.839844 149.933594 448.910156 147.085938 449.867188 C 146.871094 449.9375 134.191406 453.5625 101.195312 467.199219 C 99.074219 468.074219 97.050781 468.871094 95.128906 469.628906 C 91.21875 471.171875 87.976562 472.410156 85.257812 473.65625 L 144.152344 493.28125 C 144.621094 493.425781 145.089844 493.507812 145.578125 493.507812 C 146.066406 493.507812 146.535156 493.425781 147.007812 493.273438 L 255.386719 457.148438 C 257.230469 456.53125 258.476562 454.808594 258.476562 452.867188 C 258.476562 450.925781 257.230469 449.199219 255.386719 448.585938 Z M 255.386719 448.585938 " fill-opacity="1" fill-rule="nonzero"/></g></svg>