<svg xmlns="http://www.w3.org/2000/svg" xmlns:xlink="http://www.w3.org/1999/xlink" width="2000" zoomAndPan="magnify" viewBox="0 0 1500 1499.999933" height="2000" preserveAspectRatio="xMidYMid meet" version="1.0"><defs><clipPath id="4ee5f13ac8"><path d="M 114 609 L 568 609 L 568 1053 L 114 1053 Z M 114 609 " clip-rule="nonzero"/></clipPath><clipPath id="fca1b3eb53"><path d="M 396.859375 440.773438 L 720.035156 801.046875 L 423.5625 1066.996094 L 100.386719 706.722656 Z M 396.859375 440.773438 " clip-rule="nonzero"/></clipPath><clipPath id="8cba82ba3c"><path d="M 565.761719 655.679688 L 456.664062 1029.464844 C 453.351562 1040.804688 444.160156 1049.457031 432.644531 1052.074219 C 421.125 1054.695312 409.09375 1050.867188 401.207031 1042.074219 L 122.617188 731.503906 C 114.730469 722.714844 112.226562 710.339844 116.078125 699.171875 C 119.925781 688.007812 129.523438 679.804688 141.15625 677.742188 L 524.554688 609.738281 C 536.921875 607.546875 549.546875 611.898438 557.933594 621.25 C 566.320312 630.601562 569.28125 643.621094 565.761719 655.679688 Z M 565.761719 655.679688 " clip-rule="nonzero"/></clipPath><clipPath id="26806baf68"><path d="M 0 0 L 454 0 L 454 444 L 0 444 Z M 0 0 " clip-rule="nonzero"/></clipPath><clipPath id="a63b62027b"><path d="M 282.859375 -168.226562 L 606.035156 192.046875 L 309.5625 457.996094 L -13.613281 97.722656 Z M 282.859375 -168.226562 " clip-rule="nonzero"/></clipPath><clipPath id="fc97550ddc"><path d="M 451.761719 46.679688 L 342.664062 420.464844 C 339.351562 431.804688 330.160156 440.457031 318.644531 443.074219 C 307.125 445.695312 295.09375 441.867188 287.207031 433.074219 L 8.617188 122.503906 C 0.730469 113.714844 -1.773438 101.339844 2.078125 90.171875 C 5.925781 79.007812 15.523438 70.804688 27.15625 68.742188 L 410.554688 0.738281 C 422.921875 -1.453125 435.546875 2.898438 443.933594 12.25 C 452.320312 21.601562 455.28125 34.621094 451.761719 46.679688 Z M 451.761719 46.679688 " clip-rule="nonzero"/></clipPath><clipPath id="84107fe960"><rect x="0" width="454" y="0" height="444"/></clipPath><clipPath id="a1b8f934c4"><path d="M 366.550781 460.589844 L 783.796875 460.589844 L 783.796875 909 L 366.550781 909 Z M 366.550781 460.589844 " clip-rule="nonzero"/></clipPath><clipPath id="ff8586ee35"><path d="M 437.050781 460.589844 L 713.296875 460.589844 C 752.230469 460.589844 783.796875 492.152344 783.796875 531.089844 L 783.796875 838.417969 C 783.796875 877.355469 752.230469 908.917969 713.296875 908.917969 L 437.050781 908.917969 C 398.113281 908.917969 366.550781 877.355469 366.550781 838.417969 L 366.550781 531.089844 C 366.550781 492.152344 398.113281 460.589844 437.050781 460.589844 Z M 437.050781 460.589844 " clip-rule="nonzero"/></clipPath><clipPath id="2c9f7aed0d"><path d="M 0.550781 0.589844 L 417.796875 0.589844 L 417.796875 449 L 0.550781 449 Z M 0.550781 0.589844 " clip-rule="nonzero"/></clipPath><clipPath id="3eaf483951"><path d="M 71.050781 0.589844 L 347.296875 0.589844 C 386.230469 0.589844 417.796875 32.152344 417.796875 71.089844 L 417.796875 378.417969 C 417.796875 417.355469 386.230469 448.917969 347.296875 448.917969 L 71.050781 448.917969 C 32.113281 448.917969 0.550781 417.355469 0.550781 378.417969 L 0.550781 71.089844 C 0.550781 32.152344 32.113281 0.589844 71.050781 0.589844 Z M 71.050781 0.589844 " clip-rule="nonzero"/></clipPath><clipPath id="9cad6fa36d"><rect x="0" width="418" y="0" height="449"/></clipPath><clipPath id="27043626b3"><path d="M 276.386719 631.863281 L 634.914062 631.863281 L 634.914062 872.347656 L 276.386719 872.347656 Z M 276.386719 631.863281 " clip-rule="nonzero"/></clipPath><clipPath id="50b62c4c41"><path d="M 0.386719 0.863281 L 358.914062 0.863281 L 358.914062 241.347656 L 0.386719 241.347656 Z M 0.386719 0.863281 " clip-rule="nonzero"/></clipPath><clipPath id="5c32a6b994"><rect x="0" width="359" y="0" height="242"/></clipPath><clipPath id="56189a36cf"><path d="M 2 545 L 771.097656 545 L 771.097656 1075 L 2 1075 Z M 2 545 " clip-rule="nonzero"/></clipPath><clipPath id="80fc43d014"><path d="M 100 573 L 708.902344 573 L 708.902344 993 L 100 993 Z M 100 573 " clip-rule="nonzero"/></clipPath><clipPath id="11b6407dbc"><rect x="0" width="981" y="0" height="1086"/></clipPath></defs><g transform="matrix(1, 0, 0, 1, 265, 207)"><g clip-path="url(#11b6407dbc)"><path fill="#0d4bb8" d="M 453.378906 241.34375 C 466.796875 241.34375 477.6875 230.453125 477.6875 217.035156 L 477.6875 169.976562 C 477.6875 109.109375 527.277344 59.519531 588.335938 59.519531 C 649.398438 59.519531 698.984375 109.109375 698.984375 169.976562 L 698.984375 217.035156 C 698.984375 230.453125 709.875 241.34375 723.292969 241.34375 C 736.710938 241.34375 747.601562 230.453125 747.601562 217.035156 L 747.601562 176.585938 C 747.601562 91.605469 683.816406 16.933594 598.835938 11.292969 C 506.46875 5.265625 429.070312 78.773438 429.070312 169.976562 L 429.070312 217.035156 C 429.074219 230.453125 439.960938 241.34375 453.378906 241.34375 Z M 453.378906 241.34375 " fill-opacity="1" fill-rule="nonzero"/><path fill="#fe6c0f" d="M 964.621094 873.34375 L 911.144531 353.160156 C 906.867188 311.738281 872.058594 280.429688 830.441406 280.429688 L 346.230469 280.429688 C 304.617188 280.429688 269.808594 311.933594 265.527344 353.160156 L 252.113281 482.671875 C 243.167969 569.59375 325.8125 637.460938 409.238281 611.988281 L 454.546875 598.179688 C 506.078125 582.429688 563.640625 608.488281 583.863281 665.660156 C 590.863281 685.496094 589.894531 707.273438 583.667969 727.5 L 563.640625 792.839844 C 536.027344 883.070312 603.503906 974.269531 697.820312 974.269531 L 873.613281 974.269531 C 927.867188 974.078125 970.261719 927.210938 964.621094 873.34375 Z M 964.621094 873.34375 " fill-opacity="1" fill-rule="nonzero"/><path fill="#0d4bb8" d="M 471.660156 653.796875 L 209.71875 733.722656 C 171.605469 745.390625 168.882812 798.28125 205.636719 813.839844 L 268.058594 840.09375 C 301.117188 854.09375 327.5625 880.347656 341.5625 913.597656 L 367.816406 976.023438 C 383.375 1012.773438 436.265625 1010.050781 447.933594 971.9375 L 527.859375 709.996094 C 538.554688 675.578125 506.273438 643.296875 471.660156 653.796875 Z M 471.660156 653.796875 " fill-opacity="1" fill-rule="nonzero"/><g clip-path="url(#4ee5f13ac8)"><g clip-path="url(#fca1b3eb53)"><g clip-path="url(#8cba82ba3c)"><g transform="matrix(1, 0, 0, 1, 114, 609)"><g clip-path="url(#84107fe960)"><g clip-path="url(#26806baf68)"><g clip-path="url(#a63b62027b)"><g clip-path="url(#fc97550ddc)"><path fill="#ffffff" d="M 289.796875 -208.308594 L 646.636719 189.492188 L 326.394531 476.757812 L -30.445312 78.957031 Z M 289.796875 -208.308594 " fill-opacity="1" fill-rule="nonzero"/></g></g></g></g></g></g></g></g><g clip-path="url(#a1b8f934c4)"><g clip-path="url(#ff8586ee35)"><g transform="matrix(1, 0, 0, 1, 366, 460)"><g clip-path="url(#9cad6fa36d)"><g clip-path="url(#2c9f7aed0d)"><g clip-path="url(#3eaf483951)"><path fill="#fe6c0f" d="M 0.550781 0.589844 L 417.796875 0.589844 L 417.796875 448.800781 L 0.550781 448.800781 Z M 0.550781 0.589844 " fill-opacity="1" fill-rule="nonzero"/></g></g></g></g></g></g><g clip-path="url(#27043626b3)"><g transform="matrix(1, 0, 0, 1, 276, 631)"><g clip-path="url(#5c32a6b994)"><g clip-path="url(#50b62c4c41)"><path fill="#ffffff" d="M 0.386719 0.863281 L 359.238281 0.863281 L 359.238281 241.347656 L 0.386719 241.347656 Z M 0.386719 0.863281 " fill-opacity="1" fill-rule="nonzero"/></g></g></g></g><path fill="#ffffff" d="M 393.820312 857.324219 C 388.984375 857.324219 384.210938 856.570312 379.464844 855.027344 L 159.425781 781.640625 C 155.433594 792.007812 153.441406 805.367188 153.441406 824.863281 C 167.796875 833.175781 181.792969 849.890625 181.792969 878.691406 C 181.792969 896.34375 172.964844 909.039062 165.378906 917.472656 C 198.023438 955.34375 287.851562 982.578125 393.851562 982.578125 C 527.417969 982.578125 635.652344 939.355469 635.652344 886.128906 C 635.652344 874.371094 635.652344 826.34375 635.652344 779.191406 L 408.117188 855.027344 C 403.433594 856.570312 398.65625 857.324219 393.820312 857.324219 Z M 393.820312 857.324219 " fill-opacity="1" fill-rule="nonzero"/><g clip-path="url(#56189a36cf)"><path fill="#ffffff" d="M 761.300781 666.964844 L 398.597656 546.066406 C 395.453125 545.039062 392.160156 545.039062 389.046875 546.066406 L 26.34375 666.964844 C 20.175781 669.019531 16.007812 674.792969 16.007812 681.292969 C 16.007812 687.792969 20.175781 693.5625 26.34375 695.621094 L 109.492188 723.335938 C 90.359375 745.519531 79.238281 776.804688 75.15625 827.703125 C 62.007812 833.898438 52.730469 847.109375 52.730469 862.644531 C 52.730469 878.453125 62.21875 891.902344 75.761719 897.976562 C 63.945312 1000.894531 2.3125 1035.199219 2.3125 1043.996094 C 2.3125 1048.46875 50.039062 1074.21875 61.375 1074.21875 C 78.90625 1074.21875 120.976562 1044.476562 120.976562 980.25 C 120.976562 942.40625 117.5625 913.816406 113.964844 893.535156 C 123.667969 886.492188 130.410156 875.582031 130.410156 862.644531 C 130.410156 848.527344 122.519531 836.742188 111.246094 829.941406 C 117.625 745.945312 143.585938 731.890625 206.394531 705.835938 C 212.679688 703.355469 224.558594 698.550781 231.421875 695.710938 C 243.753906 690.632812 254.90625 686.097656 265.605469 681.804688 C 300.152344 668.085938 329.351562 657.050781 351.625 648.859375 C 376.019531 640.15625 386.960938 636.984375 387.351562 636.863281 C 396.691406 633.71875 407.089844 638.765625 410.292969 648.285156 C 413.46875 657.777344 408.390625 668.054688 398.867188 671.257812 C 398.144531 671.5 355.707031 683.621094 245.292969 729.261719 C 238.191406 732.191406 231.421875 734.851562 224.984375 737.390625 C 211.894531 742.558594 201.042969 746.699219 191.945312 750.871094 L 389.046875 816.550781 C 390.617188 817.035156 392.1875 817.304688 393.820312 817.304688 C 395.453125 817.304688 397.023438 817.035156 398.597656 816.519531 L 761.300781 695.621094 C 767.464844 693.5625 771.636719 687.792969 771.636719 681.292969 C 771.636719 674.792969 767.464844 669.019531 761.300781 666.964844 Z M 761.300781 666.964844 " fill-opacity="1" fill-rule="nonzero"/></g><path fill="#0d4bb8" d="M 410.226562 820.960938 C 406.398438 820.960938 402.617188 820.363281 398.863281 819.144531 L 224.691406 761.054688 C 221.53125 769.261719 219.953125 779.835938 219.953125 795.265625 C 231.316406 801.84375 242.394531 815.074219 242.394531 837.875 C 242.394531 851.847656 235.410156 861.898438 229.402344 868.570312 C 255.242188 898.550781 326.347656 920.105469 410.25 920.105469 C 515.972656 920.105469 601.648438 885.894531 601.648438 843.761719 C 601.648438 834.453125 601.648438 796.4375 601.648438 759.117188 L 421.542969 819.144531 C 417.835938 820.363281 414.054688 820.960938 410.226562 820.960938 Z M 410.226562 820.960938 " fill-opacity="1" fill-rule="nonzero"/><g clip-path="url(#80fc43d014)"><path fill="#0d4bb8" d="M 701.101562 670.285156 L 414.007812 574.585938 C 411.519531 573.769531 408.910156 573.769531 406.445312 574.585938 L 119.351562 670.285156 C 114.46875 671.910156 111.167969 676.480469 111.167969 681.625 C 111.167969 686.769531 114.46875 691.335938 119.351562 692.964844 L 185.167969 714.902344 C 170.023438 732.464844 161.21875 757.226562 157.988281 797.515625 C 147.582031 802.417969 140.234375 812.875 140.234375 825.171875 C 140.234375 837.683594 147.75 848.332031 158.464844 853.140625 C 149.113281 934.605469 100.328125 961.757812 100.328125 968.71875 C 100.328125 972.261719 138.105469 992.644531 147.078125 992.644531 C 160.953125 992.644531 194.257812 969.101562 194.257812 918.261719 C 194.257812 888.308594 191.554688 865.675781 188.707031 849.625 C 196.386719 844.050781 201.722656 835.410156 201.722656 825.171875 C 201.722656 814 195.476562 804.667969 186.554688 799.285156 C 191.601562 732.800781 212.152344 721.675781 261.871094 701.050781 C 266.847656 699.089844 276.25 695.285156 281.679688 693.035156 C 291.441406 689.015625 300.269531 685.429688 308.738281 682.03125 C 336.082031 671.167969 359.195312 662.4375 376.828125 655.953125 C 396.136719 649.0625 404.796875 646.550781 405.105469 646.453125 C 412.5 643.964844 420.730469 647.960938 423.265625 655.5 C 425.777344 663.011719 421.757812 671.144531 414.222656 673.679688 C 413.648438 673.871094 380.058594 683.464844 292.660156 719.59375 C 287.039062 721.914062 281.679688 724.019531 276.582031 726.027344 C 266.222656 730.121094 257.632812 733.398438 250.433594 736.699219 L 406.445312 788.6875 C 407.691406 789.070312 408.933594 789.285156 410.226562 789.285156 C 411.519531 789.285156 412.761719 789.070312 414.007812 788.664062 L 701.101562 692.964844 C 705.984375 691.335938 709.285156 686.769531 709.285156 681.625 C 709.285156 676.480469 705.984375 671.910156 701.101562 670.285156 Z M 701.101562 670.285156 " fill-opacity="1" fill-rule="nonzero"/></g></g></g></svg>